<svg xmlns="http://www.w3.org/2000/svg" viewBox="0 0 872.34 550.62"><g style="isolation:isolate"><g id="_1" data-name="1"><path d="M360.41,281.53l7.18,35.91.76,39.48C348.72,316.39,360.41,281.53,360.41,281.53Z" transform="translate(-63.83 -88.91)" style="fill:#45bddd"/><path d="M474.65,284.52l-16.4,32.7-11.18,37.85C476.61,321.23,474.65,284.52,474.65,284.52Z" transform="translate(-63.83 -88.91)" style="fill:#45bddd"/><path d="M404.33,97.3c-7-2.57,7,23.23,7,23.23l24.25,30C430.39,135.79,411.33,99.87,404.33,97.3Z" transform="translate(-63.83 -88.91)" style="fill:#f44556"/><path d="M432,198.53l-27.3,196.84s52-47.09,66.73-90.7S450.16,213.2,432,198.53Z" transform="translate(-63.83 -88.91)" style="fill:#54cdf7"/><path d="M431.76,201.21l-5.23,37.71c.3,1.1.61,2.2.94,3.31,9.66,31.66,31.87,52,47.18,42.29C476.7,243,446.81,213.34,431.76,201.21Z" transform="translate(-63.83 -88.91)" style="fill:#334368"/><path d="M432,198.53l-5.23,37.72c.29,1.09.6,2.2.94,3.3,9.65,31.67,31.87,52,47.17,42.29C476.89,240.37,447,210.66,432,198.53Z" transform="translate(-63.83 -88.91)" style="fill:#dddd43"/><path d="M451.11,217.37c13.16,28.44,15.88,58.18,21.7,56.71.82-.2,1.44-1.06,1.88-2.48C473,249.23,462.29,230.79,451.11,217.37Z" transform="translate(-63.83 -88.91)" style="fill:#fff648"/><path d="M419.86,285.71l-15.2,109.66s26-23.53,46.42-52.73C438.25,334.91,426.42,313.36,419.86,285.71Z" transform="translate(-63.83 -88.91)" style="fill:#45bddd"/><path d="M450.5,253.26c-6.8-2.91-18.24,2.46-27.87,10.92l-20.27,128.9c23-20.19,34.24-35.21,45.28-58.08C472.31,284,466,259.86,450.5,253.26Z" transform="translate(-63.83 -88.91)" style="fill:#334368"/><path d="M410.29,488c-23.4-10.81-36.4-58.67-33.37-93.79a321,321,0,0,1,16-76.8s3.9,48.24,3.9,71.78S389.49,473.34,410.29,488Z" transform="translate(-63.83 -88.91)" style="fill:#c42c49"/><path d="M395.08,452.68q1.26,3.76,2.32,7.39c-3.73-23.92-.55-55.4-.55-70.88,0-23.54-3.9-71.78-3.9-71.78a321,321,0,0,0-16,76.8,133.66,133.66,0,0,0,.05,22C382.62,422.6,389.56,436.22,395.08,452.68Z" transform="translate(-63.83 -88.91)" style="fill:#b21d40"/><path d="M410.29,488c-10-7-13.48-24.64-14.41-43.66-2.71,5.17-4.66,13.08-5.34,22.29C395.83,476.64,402.47,484.39,410.29,488Z" transform="translate(-63.83 -88.91)" style="fill:#db355d"/><path d="M381,469c-20-17.23-21.36-68.27-10.3-102.21a320.8,320.8,0,0,1,33.21-71.61S396.42,344,391,367.35,364.38,448.64,381,469Z" transform="translate(-63.83 -88.91)" style="fill:#c42c49"/><path d="M384.87,389.83c2.45-8.88,4.74-16.73,6.09-22.48,5.46-23.32,6.21-70.49,6.21-70.49-34.44,56.19-34.84,93.6-33.2,124.1C369.52,403.12,377.68,390.63,384.87,389.83Z" transform="translate(-63.83 -88.91)" style="fill:#b21d40"/><path d="M367.44,444.27c2.79,10.52,7.23,19.28,13.51,24.7-8.24-10.1-7.16-29.5-3.33-49.31C372.64,421.75,368.36,431.81,367.44,444.27Z" transform="translate(-63.83 -88.91)" style="fill:#db355d"/><path d="M402.92,467.54c-10.83-14.28-30.14-92-8-160.74l48.34,18.33s-32.5,50.17-38.56,75.26C398.91,424.13,402.92,467.54,402.92,467.54Z" transform="translate(-63.83 -88.91)" style="fill:#c42c49"/><path d="M397,357.94c4.84,0,9.09,12.29,11.5,30.8,10.56-26.36,34.69-63.61,34.69-63.61L394.88,306.8c-9.14,28.4-11.19,58.35-9.7,84.72C387.52,371.47,392,357.94,397,357.94Z" transform="translate(-63.83 -88.91)" style="fill:#b21d40"/><path d="M392.08,438.9c3.46,14.06,7.54,24.3,10.84,28.64,0,0-3.3-35.76.39-60.12C398.42,411.88,394.13,423.81,392.08,438.9Z" transform="translate(-63.83 -88.91)" style="fill:#db355d"/><polygon points="369.86 504.71 379.39 509.21 376.79 283.94 372.89 284.69 369.86 504.71" style="fill:#ffb95c"/><path d="M441.36,410.71l-.74-37.86-3.9.76-1.08,45.84A99.48,99.48,0,0,1,441.36,410.71Z" transform="translate(-63.83 -88.91)" style="fill:#f78b41"/><path d="M389.49,401.16S355.86,325,358.29,278c1.29-25.09,13.16-63.85,47.26-75.53,5.63-1.93,4.68,36.29-3.49,56.23C383.86,303.13,389.49,401.16,389.49,401.16Z" transform="translate(-63.83 -88.91)" style="fill:#54cdf7"/><path d="M388,265.31c-17.78,10,2.84,105-22.47,66.38,9.26,36.14,24,69.47,24,69.47S393.16,293.71,388,265.31Z" transform="translate(-63.83 -88.91)" style="fill:#45bddd"/><path d="M405.55,206.14c-34.1,11.69-46,50.45-47.26,75.53-.13,2.49-.16,5.07-.09,7.72,14.13-.66,30.71-10.87,44.08-27.59C410.24,241.71,411.12,204.23,405.55,206.14Z" transform="translate(-63.83 -88.91)" style="fill:#334368"/><path d="M405.55,202.51c-34.1,11.68-46,50.44-47.26,75.53-.13,2.49-.16,5.07-.09,7.71,14.13-.65,30.71-10.86,44.08-27.58C410.24,238.08,411.12,200.6,405.55,202.51Z" transform="translate(-63.83 -88.91)" style="fill:#dddd43"/><polygon points="299.12 198.58 301.99 182.9 302.77 195.91 299.12 198.58" style="fill:#334368"/><path d="M396,343s2.77,13.24,5.64,13.14c5-.17,2-12.64,2-12.64Z" transform="translate(-63.83 -88.91)" style="fill:#3a1c25"/><path d="M390.88,312.46c-1.94,19.69-.15,36,10.38,37.91,4.5.82,11.2-24.28,11.2-24.28Z" transform="translate(-63.83 -88.91)" style="fill:#e53851"/><path d="M416.38,343.46s-6.16,12-3.87,13.76a3.37,3.37,0,0,0,5.17-1.85c.85-3.31,5.37-7.11,5.37-7.11Z" transform="translate(-63.83 -88.91)" style="fill:#3a1c25"/><path d="M444.48,321.15c-5.16,15.22-14.72,30.92-27.46,29.39-5.39-.64,3.2-25,3.2-25Z" transform="translate(-63.83 -88.91)" style="fill:#e53851"/><path d="M444.2,329.55c6.25-10.87,24.19-38.65,18.54-66.82-6.49-32.4-23.13-43-24.85-69.68l-43.59-3.44c13.77,19.21-4.1,41.79-8.5,66.6-3.2,18-4.21,40.52.1,69.22.69,5,4.49,14.06,6.68,13.3,1.32-.46,1.31-8,1.76-12.2,0,0-.21,10,4,11.63,4.9,1.94,6.64-6,6.64-6s-2.44,6.25,1.39,7.15,8.82-6.74,8.82-6.74-4.67,6.43.07,7,12.36-9.77,12.36-9.77-4.63,7.13-2,8.34C432.21,343,441.41,334.4,444.2,329.55Z" transform="translate(-63.83 -88.91)" style="fill:#f44556"/><path d="M462.74,262.73c-4-20-11.88-31.71-17.73-44-10.59-6.27-34.24,6.17-43.16,19.94-23,35.55,23.27,87.22,53.62,69.85C461.26,295.6,466.05,279.23,462.74,262.73Z" transform="translate(-63.83 -88.91)" style="fill:#ff4d5e"/><path d="M386.27,289.83c0-46,19.2-83.3,42.87-83.3A24.21,24.21,0,0,1,441.36,210a62.13,62.13,0,0,1-3.47-16.93l-43.59-3.44c13.77,19.21-4.1,41.79-8.5,66.6-3.2,18-4.21,40.52.1,69.22.69,5,4.49,14.06,6.68,13.3.45-.16.74-1.13.95-2.51C389,323,386.27,307,386.27,289.83Z" transform="translate(-63.83 -88.91)" style="fill:#d32d41"/><path d="M383.1,283.39c8.34-36.41,36.11-61.21,62.57-55.56a37.64,37.64,0,0,1,4.62,1.32c-5.88-11.4-11.44-21.27-12.4-36.1l-43.59-3.44c13.77,19.21-4.1,41.79-8.5,66.6A183,183,0,0,0,383.1,283.39Z" transform="translate(-63.83 -88.91)" style="fill:#d32d41"/><path d="M416.1,354.5l-3.59,2.72s6.46,4.88,9.61,8.46l9,.86S422.12,358.8,416.1,354.5Z" transform="translate(-63.83 -88.91)" style="fill:#562c36"/><path d="M420.29,357.65c-1.46-1.13-3-3.65-4.29-4.58l-3.49,4.15a100.81,100.81,0,0,1,7.8,6.6A12.5,12.5,0,0,1,420.29,357.65Z" transform="translate(-63.83 -88.91)" style="fill:#3a1c25"/><path d="M365.22,368.57c11.67-13.08,63.27,0,78.87-1.54s45.07-1.93,45.5,3.86-24.26,12.73-50.27,7.33C439.32,378.22,351.78,383.62,365.22,368.57Z" transform="translate(-63.83 -88.91)" style="fill:#ffb95c"/><path d="M464.58,374.85c-8.82.38-16.74-.33-22-1.74-6.2,1.77-16.63,2.83-28.08,2.61-17.57-.34-30.88-3.57-29.73-7.21.74-2.3,7.08-4.22,16.08-5.23-15.46-1.23-30.06-.93-35.61,5.29-13.44,15.05,74.2,10.69,74.2,10.69,26,5.4,50.61-2.58,50.17-8.37a1.81,1.81,0,0,0-.32-.87C484.54,372.48,475.29,374.4,464.58,374.85Z" transform="translate(-63.83 -88.91)" style="fill:#f78b41"/><path d="M398.91,378.76c-5.19-4.74.95-12.84,5.18-14.27,0,0,.9-4.95-6.89-.51s-7.49,10.32-3.56,13.22A8,8,0,0,0,398.91,378.76Z" transform="translate(-63.83 -88.91)" style="fill:#f78b41"/><path d="M421.31,365.46c5.81,3.86,1.17,9.8-2.7,10.72,0,0-.06,3.76,6.77.69s5.58-7.6,1.29-10A10.93,10.93,0,0,0,421.31,365.46Z" transform="translate(-63.83 -88.91)" style="fill:#f78b41"/><path d="M404.88,362.52c7.29,3.41,5.94,11.87,2.81,13.91,0,0,1.8,4.67,6.61-.73S415.71,365,410.55,363,404.88,362.52,404.88,362.52Z" transform="translate(-63.83 -88.91)" style="fill:#f78b41"/><path d="M424.27,366.36c8.05.09,10.32,8.35,8.31,11.51,0,0,3.57,3.51,5.72-3.4s-3.14-10.35-8.65-10S424.27,366.36,424.27,366.36Z" transform="translate(-63.83 -88.91)" style="fill:#f78b41"/><path d="M432.39,149.9c-29.87-17.13-43.77,8.49-46.37,17.37s3.32,22.25,8.32,27.43c9.54,9.86,32.63,13.66,43.26.93C440,192.72,458,164.57,432.39,149.9Z" transform="translate(-63.83 -88.91)" style="fill:#f95368"/><path d="M373,88.92c-6.07-.39,11.7,19.68,15.17,22.38,0,0-32.51-17.75-37.27-15s10.83,25.86,41.6,39.75c0,0-27.3-8.87-29.47-4.62s8.24,10.41,8.24,10.41-16.47,0-15.61,5.41,25.71,6.71,30.47,31.41l54.91-21C428.92,138.32,389,89.93,373,88.92Z" transform="translate(-63.83 -88.91)" style="fill:#f44556"/><path d="M442.67,213.45c-.18-.18-2.51-7.74-2.69-7.91s-.17-.6-.24-.91-.14-.5-.2-.75a.36.36,0,0,0,0-.11c-.1-.4-.19-.79-.28-1.2s-.15-.68-.22-1a.09.09,0,0,0,0-.05c-.07-.38-.14-.76-.22-1.14l-.21-1.25v0c-.06-.35-.12-.69-.17-1.05s-.13-1-.2-1.55v0c0-.29-.07-.56-.1-.85-.09-.84-.16-1.68-.22-2.55l-43.59-3.44a26.72,26.72,0,0,1,5.1,15.4c-29.4,14-39.9,49.51-41.11,73-.07,1.19-.1,2.4-.12,3.63v.27c0,2.35,0,4.77.16,7.23C379.25,244.75,428.34,221.9,442.67,213.45Z" transform="translate(-63.83 -88.91)" style="fill:#b23841;mix-blend-mode:multiply;opacity:0.5"/><path d="M383.12,167.81c3.73,7.46-1.11,30.47.57,33.27,3.44,5.73,9.75,0,9.75,0s-9.46,12-6.88,13.19,10.61-3.44,10.61-3.44-2.58,5.16-.29,6.31c5.2,2.6,16.64-7.17,16.64-7.17s-3.16,4.87,2.29,5.16,21.79-16.92,27-29.25Z" transform="translate(-63.83 -88.91)" style="fill:#f44556"/><path d="M387.37,188.48c-8.13,7-20.23,2.79-14.57-7,4.54-7.84,13.83-17,13.83-17Z" transform="translate(-63.83 -88.91)" style="fill:#f44556"/><path d="M425.78,200.16c.69,11,12.34,17.31,15.46,6.33,2.51-8.8,3-28.07,3-28.07Z" transform="translate(-63.83 -88.91)" style="fill:#f44556"/><path d="M442.67,189.61s-13.19,14.53-25.42,14.53,4.39-28.87,4.39-28.87Z" transform="translate(-63.83 -88.91)" style="fill:#d32d41"/><path d="M379.62,160.8c-18.4-3.68-19,2.52-6.61,9.54,7.21,4.09,14.5,7.31,14.5,7.31Z" transform="translate(-63.83 -88.91)" style="fill:#f44556"/><path d="M404.24,352.06l-4.34,1.87s2.2,5.54,2,9.44l7,.63S406.81,354.85,404.24,352.06Z" transform="translate(-63.83 -88.91)" style="fill:#562c36"/><path d="M406,356.13a3.31,3.31,0,0,1,.55.05c-.68-1.69-1.45-4.08-2.26-5l-4.85,2.69a23.07,23.07,0,0,1,2.26,6.34C402.38,357.82,404,356.13,406,356.13Z" transform="translate(-63.83 -88.91)" style="fill:#3a1c25"/><path d="M422.21,364.21c6.34,5.42,2.22,13.7-1.64,15,0,0,.33,5.25,7,1s4.77-12.71.14-16.07S422.21,364.21,422.21,364.21Z" transform="translate(-63.83 -88.91)" style="fill:#562c36"/><path d="M407.51,363.64c7.66,3.3,6.17,12.43,2.86,14.78,0,0,1.86,4.92,7-1.12s.8-13.55-4.62-15.39S407.51,363.64,407.51,363.64Z" transform="translate(-63.83 -88.91)" style="fill:#562c36"/><path d="M426.15,366.22c8.67-.47,12.18,8.3,10.44,11.85,0,0,4.3,3.54,5.7-4.08s-6.48-12.38-12.35-11.62S426.15,366.22,426.15,366.22Z" transform="translate(-63.83 -88.91)" style="fill:#562c36"/><path d="M404.26,363.57c-8.68,1.6-9.95,11-7.33,14,0,0-3.36,4.46-6.66-2.63s3.29-13.59,9.28-14.24S404.26,363.57,404.26,363.57Z" transform="translate(-63.83 -88.91)" style="fill:#562c36"/><path d="M408.36,363.25l-4.88-.15c-.58.9-1.05,5.19-1.72,8.9-.83,4.59-1.62,8.73.76,9.36,2.64.7,4.85-3,5.84-8C409,370.17,409.3,366.3,408.36,363.25Z" transform="translate(-63.83 -88.91)" style="fill:#562c36"/><path d="M377.56,368.67c0-2.41-3-3.69-6.65-2.88s-6.59,3.42-6.56,5.83,3,3.7,6.66,2.88S377.59,371.08,377.56,368.67Z" transform="translate(-63.83 -88.91)" style="fill:#e55838"/><path d="M404.25,97.28c-6.51-2.16,3,14.62,5.78,20.88a14.27,14.27,0,0,1,1.1-1.1C409.71,113.61,401.76,99.71,404.25,97.28Z" transform="translate(-63.83 -88.91)" style="fill:#d3354f"/><path d="M352.4,96a3,3,0,0,0-1.48.26c-4.75,2.69,10.71,25.66,41.22,39.58.22-1.12.19-1.13.47-2.21C375,121.92,361.67,107.67,352.4,96Z" transform="translate(-63.83 -88.91)" style="fill:#d3354f"/><path d="M392.66,153.61c1.43-4.19-1.35-13.61-.53-17.73-3.32-1-27.06-8.45-29.08-4.5-2.16,4.24,8.24,10.41,8.24,10.41s-16.47,0-15.61,5.41c.57,3.51,11.28,5.3,20,12.92-14.47-2-14.08,3.74-2.68,10.22,1.91,1.08,3.82,2.1,5.6,3a64.23,64.23,0,0,0-5.81,8.14c-4.87,8.41,3.41,12.67,11,9.26-.43,5.09-.76,9.23-.11,10.32,3.44,5.73,9.75,0,9.75,0s-9.46,12-6.88,13.19,10.61-3.44,10.61-3.44-2.58,5.16-.29,6.31c5.2,2.6,16.64-7.17,16.64-7.17s-3.16,4.87,2.29,5.16c2.46.13,7.13-3.3,12-8.23,3.64,6.23,11.05,8,13.44-.41a39.77,39.77,0,0,0,.9-4C414.92,207.58,380.35,189.8,392.66,153.61Z" transform="translate(-63.83 -88.91)" style="fill:#d32d41"/><path d="M424.4,173.75c-8.12,7.38,1.25,24.59,11.77,20.16,8.44-3.55,16.71-19.36,16.71-19.36Z" transform="translate(-63.83 -88.91)" style="fill:#554256"/><path d="M421.34,181.05c12.31-.72,20.71.66,26.19,2.51,3.31-4.58,6.21-8.94,6.21-8.94l-29.34-.87A9.64,9.64,0,0,0,421.34,181.05Z" transform="translate(-63.83 -88.91)" style="fill:#3f323f"/><path d="M437.32,192.43c-9.24,3.88-17.58-8.9-14-17.07-6.1,7.87,2.84,23.18,12.84,19,6.54-2.75,13-12.86,15.54-17.27-.67,1.09-1.64,1.49-2.54,2.79C446,184.43,441.77,190.56,437.32,192.43Z" transform="translate(-63.83 -88.91)" style="fill:#3f323f"/><path d="M355.85,145.94c.1,4,30,13.17,36.34,14.45l.1-14.94s-12.25-3.28-22.51-3.62C362.22,141.58,355.8,143.72,355.85,145.94Z" transform="translate(-63.83 -88.91)" style="fill:#f44556"/><path d="M422.23,177.18c-6.14,12.62-22.77,16.83-28.55,5.74s-4.05-30,4.11-37.19c17.4-15.4,34.56,10,34.56,10Z" transform="translate(-63.83 -88.91)" style="fill:#ffe7ab"/><path d="M425.85,146.59c-5.36,3.45,1.91,10.71,4.21,9.94l9.93-1.14C444.58,144.68,431.2,143.15,425.85,146.59Z" transform="translate(-63.83 -88.91)" style="fill:#d8324a"/><path d="M428.53,145.45a4.35,4.35,0,0,0-.2,1.24c0,3.75,5,6.79,11.09,6.79.42,0,.83,0,1.24,0C442.55,145.85,434.17,143.9,428.53,145.45Z" transform="translate(-63.83 -88.91)" style="fill:#f44556"/><path d="M409.74,158.76c.34-2.69-.76-5.31-2.56-5.85s-3.87,1.42-4.22,4.46,1,5.61,3,5.84S409.4,161.44,409.74,158.76Z" transform="translate(-63.83 -88.91)" style="fill:#4f3d3d"/><path d="M407.93,156.73a2,2,0,0,0-1-2.19c-.73-.22-1.48.51-1.62,1.63s.37,2.09,1.11,2.19S407.79,157.73,407.93,156.73Z" transform="translate(-63.83 -88.91)" style="fill:#ffe7ab"/><path d="M430.37,149.59c-.45-1.15-1.43-2-2.22-1.82s-1.16,1.37-.64,2.67,1.59,2,2.37,1.72S430.81,150.73,430.37,149.59Z" transform="translate(-63.83 -88.91)" style="fill:#af1b33"/><path d="M432.51,154.83c-11.35,2.18-12.87,24.4-12.87,24.4l1.61-.08C422.22,173,425.29,159.72,432.51,154.83Z" transform="translate(-63.83 -88.91)" style="fill:#3f323f"/><path d="M420.69,179.23s2.17-22.77,13-24.7,24.27,8.49,24.7,35.9C458.39,190.43,456.22,176.92,420.69,179.23Z" transform="translate(-63.83 -88.91)" style="fill:#91546b"/><path d="M458.34,190.19a1.82,1.82,0,0,1,.05.24c-.43-27.41-13.87-37.83-24.7-35.9-3.92.7-6.7,4.13-8.66,8.21C438.91,163.23,456.16,176.48,458.34,190.19Z" transform="translate(-63.83 -88.91)" style="fill:#c987a2"/><path d="M422.45,179.21c-.2-1.28-1.16-2.19-2.16-2a2.4,2.4,0,1,0,2.16,2Z" transform="translate(-63.83 -88.91)" style="fill:#3f323f"/><path d="M363.71,131.06c-1,3.87,22.85,12.52,28.58,15.53l2.83-10.8S364.72,127.19,363.71,131.06Z" transform="translate(-63.83 -88.91)" style="fill:#f44556"/><path d="M423,179.5a2,2,0,0,0,.5-2.7,2,2,0,0,0-2.77.14,2,2,0,0,0-.5,2.7A2,2,0,0,0,423,179.5Z" transform="translate(-63.83 -88.91)" style="fill:#91546b"/><path d="M439.51,157c.64-.64-4.19-2.24-6.05-1.68s-2.72,1.79-1.69,2.12S438.93,157.61,439.51,157Z" transform="translate(-63.83 -88.91)" style="fill:#3f323f"/><path d="M400.11,156.71c-2.24,5.4-3.12,21.2,8.39,16.3l-.08-.17C398.86,176.23,398.51,163.07,400.11,156.71Z" transform="translate(-63.83 -88.91)" style="fill:#f44556"/><path d="M410.69,163c2.57-4.27,5.3-17.47-5-14.8l.05.16C414.21,146.68,412.84,157.81,410.69,163Z" transform="translate(-63.83 -88.91)" style="fill:#f44556"/><polygon points="310.78 193.99 314.8 176.21 314.58 191.74 310.78 193.99" style="fill:#334368"/><polygon points="403.31 196.33 403.74 183 405.7 195.93 403.31 196.33" style="fill:#334368"/><path d="M445.63,285.1a77.78,77.78,0,0,1-12.33,29.25l6,6C446.5,305.46,445.63,285.1,445.63,285.1Z" transform="translate(-63.83 -88.91)" style="fill:#f44556"/><path d="M406.7,268.83a77.92,77.92,0,0,1-7.18,30.92l7,4.91C411,288.75,406.7,268.83,406.7,268.83Z" transform="translate(-63.83 -88.91)" style="fill:#f44556"/><path d="M456.55,284.67a78,78,0,0,1-15.8,27.54l5.25,6.71C454.92,305,456.55,284.67,456.55,284.67Z" transform="translate(-63.83 -88.91)" style="fill:#f44556"/><path d="M425.23,269.33c-5.71,24.35-17.64,40.24-17.64,40.24l6.9,8.92C424.57,298,425.23,269.33,425.23,269.33Z" transform="translate(-63.83 -88.91)" style="fill:#f44556"/><path d="M793.5,547.64l-2,.57c.85,1.9,1.8,5.23,3.51,4.56S793.5,547.64,793.5,547.64Z" transform="translate(-63.83 -88.91)" style="fill:#a09a2b"/><path d="M752,550.16c-2.14,1.42-6.7.14-1-3.43,2.6-1.62,4.57,2.86,11,4.28,1.14.26.28,3,.28,3Z" transform="translate(-63.83 -88.91)" style="fill:#a09a2b"/><path d="M724.26,551.56l-5.49-5.28s-4.8,19.46-2.7,28.33l6.51-2.49S719.46,564.34,724.26,551.56Z" transform="translate(-63.83 -88.91)" style="fill:#a09a2b"/><path d="M788.06,534.75l-7.27-1.57s5.55,13.51,11.63,16.93l3.34-2.09S789.49,544.17,788.06,534.75Z" transform="translate(-63.83 -88.91)" style="fill:#a09a2b"/><path d="M668.38,624.33h79.17l-24-26.1s4.28-21,9-25.68L745.41,564l41.51-9.41L801,547.3s36.8-20.11,73.6-2.14l18-3,5.56.85,17.54-9.84L896,540.46s-36.8-.86-43.65-8.56c0,0-31.67-1.29-62.48,18.83l-9.41,3.42S757,553.29,751.83,549c0,0-30.38,23.1-50.92,30l-12,16.69-3.43,11.13S670.1,615.34,668.38,624.33Z" transform="translate(-63.83 -88.91)" style="fill:#8e573f"/><path d="M780.5,554.15S757,553.29,751.83,549c0,0-30.38,23.1-50.92,30l-12,16.69-3.09,10c11.54-11.47,13.82,11.34,61.71,18.65L727.29,598s.58-20.76,5.28-25.47L745.41,564l41.51-9.41L801,547.3a92.53,92.53,0,0,1,31.73-9.14,36.87,36.87,0,0,0-3.63-3.67,117.73,117.73,0,0,0-39.23,16.24Z" transform="translate(-63.83 -88.91)" style="fill:#773e2a"/><path d="M842.41,520.92c-1-6.28-8.13-2.57-8.13-2.57s2.53-22.64-44.37-29.67c-5.7-.86,1.15,20,1.15,20s-16.55-41.94-57.63-30.81-65.62,88.72-41.65,115.54,88.15,34.23,103-4c2.57-6.2,3.71-18.68-5.7-22.68-13.47-5.71-28.53,14.13-20.68,24.54s14.7,3.44,16.47-1.07c3.93-10-3.92-14-7.13-13.27s-3.78,5.64-1.71,6.78,2.28,4.42.78,5.7-5.13,1.29-5-5.7,8.77-12,15.26-9.13c14.54,6.39-16.81,55.52-68.46,25.39-24-14-15.85-40.19-1.72-43.94,9.7-2.56,42.51-18.82,58.49-19.39s29.38,7.41,46.78-2S843,524.59,842.41,520.92Z" transform="translate(-63.83 -88.91)" style="fill:#c5d841"/><path d="M793,586.34c-14.83,38.23-76.84,28.79-100.81,2-.94-1.06-4-.19-4.78-1.41a30.27,30.27,0,0,0,4.38,6.47c24,26.81,88.15,34.23,103-4,2-4.93,3.18-13.84-1.18-19.29C795.76,575.42,794.69,582.25,793,586.34Z" transform="translate(-63.83 -88.91)" style="fill:#acb22b"/><path d="M789.28,505.61s-.21-.65-.53-1.7c-.52-1-1.12-2-1.83-3.15A47.38,47.38,0,0,1,789.28,505.61Z" transform="translate(-63.83 -88.91)" style="fill:#acb22b"/><path d="M833.94,514.72a20.33,20.33,0,0,0-3.21-7.16,15.59,15.59,0,0,1,1.77,7.75A9.8,9.8,0,0,1,833.94,514.72Z" transform="translate(-63.83 -88.91)" style="fill:#acb22b"/><path d="M774.8,581.05a2.87,2.87,0,0,0,1.18,2.6A3.82,3.82,0,0,0,774.8,581.05Z" transform="translate(-63.83 -88.91)" style="fill:#acb22b"/><path d="M842.41,520.92a4.18,4.18,0,0,0-1.79-3.11.13.13,0,0,0,0,.06c2.86,4.62-1.4,6-18.8,15.39s-32.26-.27-48.24.3-49.15,16.27-58.85,18.83c-6.86,1.82-16,2.29-17.12,10.92-1.35,10.78,4.6,18.3,8.27,23.72-6.58-13.28,1.15-27.51,11.58-30.26,9.7-2.57,42-18.63,58-19.2s29.31,6.45,46.71-3S843,524.59,842.41,520.92Z" transform="translate(-63.83 -88.91)" style="fill:#acb22b"/><path d="M788.6,575.54a5.69,5.69,0,0,0-3.31-4c-6.49-2.86-15.12,2.14-15.26,9.12-.08,3.63.87,5.37,2,6a13.6,13.6,0,0,1-.23-3,8.91,8.91,0,0,1,1.37-4.52c-.54-1.9.38-4.77,2.78-5.3a5.73,5.73,0,0,1,3.37.52,10.56,10.56,0,0,1,7.74.17A5.74,5.74,0,0,1,788.6,575.54Z" transform="translate(-63.83 -88.91)" style="fill:#acb22b"/><path d="M785.71,587.26c.68-3.64-.36-6.26-2-8a11.67,11.67,0,0,1-.66,7.84c-1.75,4.43-8.42,11.25-16.11,1.53a10.34,10.34,0,0,0,1.41,2.58c3.32,4.41,6.46,5.69,9.13,5.37A37.52,37.52,0,0,0,785.71,587.26Z" transform="translate(-63.83 -88.91)" style="fill:#acb22b"/><path d="M814.81,509.33c-1.65-5.45-6.63-8.68-11.14-7.22s-6.82,7.08-5.18,12.53,6.63,8.68,11.14,7.22S816.45,514.79,814.81,509.33Z" transform="translate(-63.83 -88.91)" style="fill:#7e842a"/><path d="M745.79,487.38c26.44,0,30.41,3.23,37.86,8.58-8.46-11.3-24.54-26.56-50.22-19.6-41.08,11.12-65.62,90.2-41.65,117s88.15,34.23,103-4c2.57-6.2,3.71-18.68-5.7-22.68a12.68,12.68,0,0,0-4.64-1c-2.21,3.64,1,4.36,4.2,6.2,17.74,10.14-19.7,62.22-75.72,32.57C670.62,582.09,689.81,487.38,745.79,487.38Z" transform="translate(-63.83 -88.91)" style="fill:#d9e545"/><path d="M826.19,523.09c2.33-2,6.26-3.55,11.14-4.51a35.21,35.21,0,0,1,3.65-.52c-2.39-2-6.7.29-6.7.29s2.33-21-39.23-28.8C805.87,492.15,832.47,512.22,826.19,523.09Z" transform="translate(-63.83 -88.91)" style="fill:#d9e545"/><path d="M702.83,568.65A19.36,19.36,0,0,1,713.47,556c-2.18-7-12.51-7-16-1.52C694.36,559.53,697.59,565.49,702.83,568.65Z" transform="translate(-63.83 -88.91)" style="fill:#e1ed48"/><path d="M711.88,553.06a26.65,26.65,0,0,1-7,6.66,28.55,28.55,0,0,1-7.37,3.64,16.79,16.79,0,0,0,6.57,7.12c1.53-6.08,5.35-11.15,10.2-13.5A6.32,6.32,0,0,0,711.88,553.06Z" transform="translate(-63.83 -88.91)" style="fill:#acb22b"/><path d="M771.93,522.3c-6.46-.25-11.69,4.53-11.69,10.67a10.86,10.86,0,0,0,1,4.53,59.85,59.85,0,0,1,14-2.16,59.25,59.25,0,0,1,8.17.64,10.51,10.51,0,0,0,.22-2.12C783.62,527.72,778.38,522.54,771.93,522.3Z" transform="translate(-63.83 -88.91)" style="fill:#e1ed48"/><path d="M768.5,533.16c-4.35,0-4.82-2.27-7.38-4.39-1.19,2.69-1.73,6.57-.41,9.46,5.27-1.32,10.57-2.39,14.45-2.37,2.79,0,9,.19,11.69.56-2.47-2.09-3.31-5.24-4.41-7.44C779.88,531,772.7,533.16,768.5,533.16Z" transform="translate(-63.83 -88.91)" style="fill:#acb22b"/><path d="M814.16,507.91c-1.69-5.18-6.49-8.27-10.72-6.9s-6.28,6.69-4.59,11.88,6.49,8.28,10.72,6.9S815.85,513.1,814.16,507.91Z" transform="translate(-63.83 -88.91)" style="fill:#d9e545"/><path d="M814.16,507.91a11.58,11.58,0,0,0-2.28-4c.11,3.95-1.86,7.43-5.17,8.51-3,1-6.18-.27-8.43-2.86a11.56,11.56,0,0,0,.57,3.37c1.69,5.18,6.49,8.28,10.72,6.9S815.85,513.1,814.16,507.91Z" transform="translate(-63.83 -88.91)" style="fill:#b5bf34"/><path d="M811.27,509.32c-1.06-3.22-4-5.15-6.67-4.29s-3.91,4.17-2.86,7.39,4,5.16,6.67,4.3S812.32,512.55,811.27,509.32Z" transform="translate(-63.83 -88.91)" style="fill:#f5f964"/><path d="M804.61,505.35c2.55-.83,5.4.84,6.68,3.78a.64.64,0,0,1,0-.07c-1.1-3.36-4.21-5.36-6.94-4.47s-4.08,4.34-3,7.71c.08.24.17.47.26.7C800.56,509.65,801.89,506.24,804.61,505.35Z" transform="translate(-63.83 -88.91)" style="fill:#b5bf34"/><path d="M807.82,514.25c-1.74.67-3.8-.38-4.81-2.39a.06.06,0,0,1,0,0c.9,2.31,3.15,3.6,5,2.87s2.67-3.19,1.78-5.5c-.07-.17-.14-.33-.22-.48C810.48,511.09,809.69,513.53,807.82,514.25Z" transform="translate(-63.83 -88.91)" style="fill:#b5bf34"/><path d="M807.93,510a1.8,1.8,0,1,0-1.13,2.34A1.84,1.84,0,0,0,807.93,510Z" transform="translate(-63.83 -88.91)" style="fill:#7e842a"/><path d="M800.76,529.48s-11.13-12.84-12.84-27.11l2.85,4.57S794.91,522.91,800.76,529.48Z" transform="translate(-63.83 -88.91)" style="fill:#7e842a"/><path d="M774,531.44c1.87-1.08,4.66-6.89.15-6.87s-14.15,2-22.57-1.48-8,5.11-2.41,7.31S767.4,535.29,774,531.44Z" transform="translate(-63.83 -88.91)" style="fill:#e1ed48"/><path d="M774.3,530.44c-6.62,3.85-19.73-.5-25.3-2.7a6.59,6.59,0,0,1-3.73-3.69c-.64,2,.87,5.14,3.92,6.35,5.57,2.2,19.27,5.56,25.89,1.71A.92.92,0,1,0,774.3,530.44Z" transform="translate(-63.83 -88.91)" style="fill:#d4d835"/><path d="M761.53,553.44c-3.71-4.57-20-25.39-15.83-30.24s16.26,26.39,20.68,29.95Z" transform="translate(-63.83 -88.91)" style="fill:#e1ed48"/><path d="M756.56,536.2c.74,3.49.56,6-.68,6.61-.83.37-2-.2-3.3-1.45,3.57,5.31,7.38,10.14,8.95,12.08l4.85-.29C764.28,551.46,760.45,543.54,756.56,536.2Z" transform="translate(-63.83 -88.91)" style="fill:#d4d835"/><path d="M741.63,569.34c1.58,0,1.25-3.58-1.06-6.17a10.21,10.21,0,0,0-5.33-2.64c-5-.94-3.82,2-3.82,2a15.2,15.2,0,0,1,6,2.38C739.48,566.46,740.2,569.34,741.63,569.34Z" transform="translate(-63.83 -88.91)" style="fill:#d4d835"/><path d="M768.47,563.56c1.47.59,2.48-2.87,1.29-6.13a10.31,10.31,0,0,0-4-4.42c-4.28-2.71-4.28.43-4.28.43a15.14,15.14,0,0,1,4.71,4.42C767.53,560.09,767.14,563,768.47,563.56Z" transform="translate(-63.83 -88.91)" style="fill:#d4d835"/><path d="M745.28,558.07c-3.85-2.94-10.95.42-13.21,1.64l2,1.85s4.79-3.41,8.84-.73C746.66,563.32,749.14,561,745.28,558.07Z" transform="translate(-63.83 -88.91)" style="fill:#d4d835"/><path d="M775.84,555.53c-2-4.42-9.84-4.85-12.41-4.85l.86,2.57s5.83-.72,8.13,3.56C774.56,560.8,777.84,560,775.84,555.53Z" transform="translate(-63.83 -88.91)" style="fill:#d4d835"/><path d="M800.62,546.85c-1.71-3.28-7.33-1.68-9.64-.84l1.73,2.42s4.16-2.6,6.33.37C800.64,551,802,549.48,800.62,546.85Z" transform="translate(-63.83 -88.91)" style="fill:#a09a2b"/><path d="M788.7,553.25c-1.84-3.21,1.95-6.5,3.64-7.75l1.15,2.72s-3.92,1.61-2.53,5C792,555.69,790.17,555.82,788.7,553.25Z" transform="translate(-63.83 -88.91)" style="fill:#a09a2b"/><path d="M699.85,561.45c9.09-.63,13.69-19.34,19.63-20,2.2-.23,3.37-8.46.54-8.58s-15.31,10.85-20.72,20.45C696.16,558.92,697.53,561.62,699.85,561.45Z" transform="translate(-63.83 -88.91)" style="fill:#e1ed48"/><path d="M721.21,533.72c-.21,2-1,3.89-2,4-5.93.64-9.22,22.31-18.29,22.94-1.19.09-5.11,3.19-2.95,2.55,19.39-5.68,15.8-21,21.73-21.65C721.49,541.38,722.44,535.85,721.21,533.72Z" transform="translate(-63.83 -88.91)" style="fill:#d4d835"/><path d="M720,532.9c-3-.57-5.81,8.63-1.93,9.05s8.88,13.56,12,21.85l4.81-3.09C732.06,552.42,723.05,533.46,720,532.9Z" transform="translate(-63.83 -88.91)" style="fill:#e1ed48"/><path d="M725.51,540.12c1.73,6.06,1.91,11.4.58,13.59,1.48,3.44,2.85,7.09,4,10.09l4.81-3.09A148.09,148.09,0,0,0,725.51,540.12Z" transform="translate(-63.83 -88.91)" style="fill:#d4d835"/><path d="M732.73,575.14c-.85,1.4-3.8-.68-4.81-4a10.54,10.54,0,0,1,.58-6c1.87-4.87,3.79-2.39,3.79-2.39a15.65,15.65,0,0,0-1.17,6.5C731.39,571.8,733.5,573.88,732.73,575.14Z" transform="translate(-63.83 -88.91)" style="fill:#d4d835"/><path d="M819.54,531.39l-.85-.95c.62-2.71,7.77-9.27,15.61-12.77l.31.52C826.41,521.85,822.68,525.12,819.54,531.39Z" transform="translate(-63.83 -88.91)" style="fill:#757a31"/><path d="M831.14,512.28c-1,2-3.9-5.32-3.33-6.08C827.81,506.2,832.38,509.81,831.14,512.28Z" transform="translate(-63.83 -88.91)" style="fill:#7e842a"/><path d="M704,500.69c9.72-12.16,24.62-24.86,41-25.28,17.3-.45,29.34,11.34,29.34,11.34C746.94,472.17,726.93,477.53,704,500.69Z" transform="translate(-63.83 -88.91)" style="fill:#c5d841"/><g style="mix-blend-mode:overlay;opacity:0.6000000000000001"><path d="M771.2,510.83a.89.89,0,0,0,1.77,0,.89.89,0,1,0-1.77,0Z" transform="translate(-63.83 -88.91)" style="fill:#fff"/><path d="M754.84,519.83a.89.89,0,1,0,.89-.89A.89.89,0,0,0,754.84,519.83Z" transform="translate(-63.83 -88.91)" style="fill:#fff"/><path d="M777.79,501.83a.89.89,0,1,0,.88-.89A.88.88,0,0,0,777.79,501.83Z" transform="translate(-63.83 -88.91)" style="fill:#fff"/><path d="M788.81,528.25a.89.89,0,1,0,.89-.88A.89.89,0,0,0,788.81,528.25Z" transform="translate(-63.83 -88.91)" style="fill:#fff"/><path d="M809,498a.89.89,0,1,0,.89-.89A.89.89,0,0,0,809,498Z" transform="translate(-63.83 -88.91)" style="fill:#fff"/><path d="M820.56,510.19a.89.89,0,1,0,.88-.88A.88.88,0,0,0,820.56,510.19Z" transform="translate(-63.83 -88.91)" style="fill:#fff"/><path d="M830.63,523.69a.89.89,0,1,0,.89-.89A.89.89,0,0,0,830.63,523.69Z" transform="translate(-63.83 -88.91)" style="fill:#fff"/><path d="M764.61,519.13a.89.89,0,1,0,.89-.89A.88.88,0,0,0,764.61,519.13Z" transform="translate(-63.83 -88.91)" style="fill:#fff"/><path d="M794.51,499.17a.89.89,0,1,0,.89-.89A.88.88,0,0,0,794.51,499.17Z" transform="translate(-63.83 -88.91)" style="fill:#fff"/><path d="M785.26,516.47a.89.89,0,1,0,.89-.89A.88.88,0,0,0,785.26,516.47Z" transform="translate(-63.83 -88.91)" style="fill:#fff"/><path d="M815,521.6a.89.89,0,1,0,.89-.89A.89.89,0,0,0,815,521.6Z" transform="translate(-63.83 -88.91)" style="fill:#fff"/><path d="M804.59,527.94a.89.89,0,1,0,.89-.89A.89.89,0,0,0,804.59,527.94Z" transform="translate(-63.83 -88.91)" style="fill:#fff"/><path d="M795.85,535.86a.89.89,0,0,0,1.77,0,.89.89,0,1,0-1.77,0Z" transform="translate(-63.83 -88.91)" style="fill:#fff"/><path d="M794.51,515.9a.89.89,0,1,0,.89-.89A.88.88,0,0,0,794.51,515.9Z" transform="translate(-63.83 -88.91)" style="fill:#fff"/><path d="M812,531.67a.89.89,0,1,0,.89-.88A.89.89,0,0,0,812,531.67Z" transform="translate(-63.83 -88.91)" style="fill:#fff"/><path d="M744,498.22a.89.89,0,1,0,.89-.89A.89.89,0,0,0,744,498.22Z" transform="translate(-63.83 -88.91)" style="fill:#fff"/><path d="M728.17,499.23a.89.89,0,1,0,.89-.89A.89.89,0,0,0,728.17,499.23Z" transform="translate(-63.83 -88.91)" style="fill:#fff"/><path d="M740.4,486.43a.89.89,0,1,0,.89-.88A.89.89,0,0,0,740.4,486.43Z" transform="translate(-63.83 -88.91)" style="fill:#fff"/><path d="M729,487.43a.89.89,0,1,0,.89-.89A.89.89,0,0,0,729,487.43Z" transform="translate(-63.83 -88.91)" style="fill:#fff"/><path d="M770.18,491.56a.89.89,0,1,0,.89-.88A.89.89,0,0,0,770.18,491.56Z" transform="translate(-63.83 -88.91)" style="fill:#fff"/><path d="M759.73,497.9a.89.89,0,1,0,.89-.89A.89.89,0,0,0,759.73,497.9Z" transform="translate(-63.83 -88.91)" style="fill:#fff"/><path d="M760.11,483.77a.89.89,0,1,0,.89-.89A.89.89,0,0,0,760.11,483.77Z" transform="translate(-63.83 -88.91)" style="fill:#fff"/><path d="M751,505.82a.89.89,0,1,0,.88-.89A.88.88,0,0,0,751,505.82Z" transform="translate(-63.83 -88.91)" style="fill:#fff"/><path d="M740.4,516.47a.89.89,0,1,0,.89-.89A.88.88,0,0,0,740.4,516.47Z" transform="translate(-63.83 -88.91)" style="fill:#fff"/><path d="M749.65,485.86a.89.89,0,1,0,.89-.88A.89.89,0,0,0,749.65,485.86Z" transform="translate(-63.83 -88.91)" style="fill:#fff"/><path d="M735.4,507.53a.89.89,0,1,0,.88-.88A.89.89,0,0,0,735.4,507.53Z" transform="translate(-63.83 -88.91)" style="fill:#fff"/><path d="M764.48,506.39a.89.89,0,1,0,.89-.89A.89.89,0,0,0,764.48,506.39Z" transform="translate(-63.83 -88.91)" style="fill:#fff"/><path d="M732,541.24a.89.89,0,1,0,.88-.88A.89.89,0,0,0,732,541.24Z" transform="translate(-63.83 -88.91)" style="fill:#fff"/><path d="M740.34,528.06a.89.89,0,1,0,1.77,0,.89.89,0,0,0-1.77,0Z" transform="translate(-63.83 -88.91)" style="fill:#fff"/><path d="M743.38,536.62a.89.89,0,1,0,.89-.89A.88.88,0,0,0,743.38,536.62Z" transform="translate(-63.83 -88.91)" style="fill:#fff"/><path d="M732.74,517.8a.89.89,0,0,0,1.77,0,.89.89,0,1,0-1.77,0Z" transform="translate(-63.83 -88.91)" style="fill:#fff"/><path d="M722.28,524.13a.89.89,0,1,0,.89-.88A.89.89,0,0,0,722.28,524.13Z" transform="translate(-63.83 -88.91)" style="fill:#fff"/><path d="M717.92,500.76a.89.89,0,1,0,1.77,0,.89.89,0,0,0-1.77,0Z" transform="translate(-63.83 -88.91)" style="fill:#fff"/><path d="M722.66,510a.89.89,0,1,0,.89-.88A.89.89,0,0,0,722.66,510Z" transform="translate(-63.83 -88.91)" style="fill:#fff"/><path d="M705.55,504.11a.89.89,0,1,0,.89-.89A.89.89,0,0,0,705.55,504.11Z" transform="translate(-63.83 -88.91)" style="fill:#fff"/><path d="M714.11,532.44a.89.89,0,1,0,.88-.89A.89.89,0,0,0,714.11,532.44Z" transform="translate(-63.83 -88.91)" style="fill:#fff"/><path d="M705,539.59a.89.89,0,1,0,.89-.88A.89.89,0,0,0,705,539.59Z" transform="translate(-63.83 -88.91)" style="fill:#fff"/><path d="M695.1,546.82a.89.89,0,1,0,.89-.89A.88.88,0,0,0,695.1,546.82Z" transform="translate(-63.83 -88.91)" style="fill:#fff"/><path d="M691.49,566a.89.89,0,1,0,.89-.88A.89.89,0,0,0,691.49,566Z" transform="translate(-63.83 -88.91)" style="fill:#fff"/><path d="M696.81,574.15a.89.89,0,0,0,1.77,0,.89.89,0,1,0-1.77,0Z" transform="translate(-63.83 -88.91)" style="fill:#fff"/><path d="M702.39,597.82a.89.89,0,1,0,.88-.88A.88.88,0,0,0,702.39,597.82Z" transform="translate(-63.83 -88.91)" style="fill:#fff"/><path d="M717.72,603.27a.89.89,0,1,0,.89-.88A.89.89,0,0,0,717.72,603.27Z" transform="translate(-63.83 -88.91)" style="fill:#fff"/><path d="M694.4,590.22a.89.89,0,1,0,.89-.89A.89.89,0,0,0,694.4,590.22Z" transform="translate(-63.83 -88.91)" style="fill:#fff"/><path d="M723.68,610.18a.89.89,0,1,0,.88-.89A.88.88,0,0,0,723.68,610.18Z" transform="translate(-63.83 -88.91)" style="fill:#fff"/><path d="M737.74,611.13a.89.89,0,1,0,.89-.89A.89.89,0,0,0,737.74,611.13Z" transform="translate(-63.83 -88.91)" style="fill:#fff"/><path d="M752.7,613.79a.89.89,0,1,0,.88-.89A.88.88,0,0,0,752.7,613.79Z" transform="translate(-63.83 -88.91)" style="fill:#fff"/><path d="M764.23,610a.89.89,0,1,0,.88-.89A.88.88,0,0,0,764.23,610Z" transform="translate(-63.83 -88.91)" style="fill:#fff"/><path d="M777.48,607.46c.1.34.62.49,1.15.33s.88-.57.78-.92-.63-.49-1.16-.33S777.37,607.11,777.48,607.46Z" transform="translate(-63.83 -88.91)" style="fill:#fff"/><path d="M783.3,598.48c.18.24.64.2,1-.09s.55-.72.38-1-.64-.2-1,.09S783.12,598.24,783.3,598.48Z" transform="translate(-63.83 -88.91)" style="fill:#fff"/><path d="M792.94,587.19a.78.78,0,0,0,.48,1c.35.06.69-.28.77-.76a.78.78,0,0,0-.49-1C793.36,586.37,793,586.71,792.94,587.19Z" transform="translate(-63.83 -88.91)" style="fill:#fff"/><path d="M790.88,594c-.17.45-.18.87,0,.93s.43-.26.6-.71.18-.87,0-.93S791.05,593.52,790.88,594Z" transform="translate(-63.83 -88.91)" style="fill:#fff"/><path d="M791.56,580c.07.48.3.84.53.8s.35-.44.29-.92-.3-.83-.53-.8S791.5,579.49,791.56,580Z" transform="translate(-63.83 -88.91)" style="fill:#fff"/><path d="M771,591.65c.22.43.65.65,1,.49a.79.79,0,0,0,.16-1.07.78.78,0,0,0-1-.48A.77.77,0,0,0,771,591.65Z" transform="translate(-63.83 -88.91)" style="fill:#fff"/><path d="M769.12,580.41c-.09.47.12.91.46,1s.7-.27.78-.74-.12-.91-.46-1S769.2,579.94,769.12,580.41Z" transform="translate(-63.83 -88.91)" style="fill:#fff"/><path d="M781.44,591c-.08.48.14.91.48,1s.69-.28.77-.75a.79.79,0,0,0-.49-1C781.86,590.18,781.52,590.52,781.44,591Z" transform="translate(-63.83 -88.91)" style="fill:#fff"/><path d="M777.07,581.58c-.08.47.14.91.48,1s.69-.28.77-.76a.78.78,0,0,0-.49-1C777.49,580.77,777.14,581.11,777.07,581.58Z" transform="translate(-63.83 -88.91)" style="fill:#fff"/><path d="M778.65,567.62c-.42.24-.62.68-.45,1a.78.78,0,0,0,1.07.12c.42-.24.62-.68.45-1A.78.78,0,0,0,778.65,567.62Z" transform="translate(-63.83 -88.91)" style="fill:#fff"/><path d="M787.53,571.66a.79.79,0,0,0-1,.28c-.12.33.15.74.61.9a.78.78,0,0,0,1-.28C788.26,572.23,788,571.83,787.53,571.66Z" transform="translate(-63.83 -88.91)" style="fill:#fff"/><path d="M794,573.13a.77.77,0,0,0-.93-.53.81.81,0,0,0-.22,1.06c.2.44.62.68.93.53A.78.78,0,0,0,794,573.13Z" transform="translate(-63.83 -88.91)" style="fill:#fff"/><path d="M782.91,582a.8.8,0,0,0,1,.28.91.91,0,0,0-1.1-1.35A.76.76,0,0,0,782.91,582Z" transform="translate(-63.83 -88.91)" style="fill:#fff"/><path d="M702.13,589.27a.89.89,0,1,0,.89-.89A.89.89,0,0,0,702.13,589.27Z" transform="translate(-63.83 -88.91)" style="fill:#fff"/><path d="M689.9,582.05a.89.89,0,1,0,.89-.89A.88.88,0,0,0,689.9,582.05Z" transform="translate(-63.83 -88.91)" style="fill:#fff"/><path d="M687.31,557.91a.89.89,0,0,0,1.77,0,.89.89,0,1,0-1.77,0Z" transform="translate(-63.83 -88.91)" style="fill:#fff"/><path d="M708.41,522.36a.89.89,0,1,0,.88-.89A.88.88,0,0,0,708.41,522.36Z" transform="translate(-63.83 -88.91)" style="fill:#fff"/><path d="M697.38,531a.89.89,0,1,0,.89-.89A.88.88,0,0,0,697.38,531Z" transform="translate(-63.83 -88.91)" style="fill:#fff"/><path d="M690.35,538.33a.89.89,0,0,0,1.77,0,.89.89,0,1,0-1.77,0Z" transform="translate(-63.83 -88.91)" style="fill:#fff"/><path d="M712.21,512.09a.89.89,0,1,0,.88-.88A.88.88,0,0,0,712.21,512.09Z" transform="translate(-63.83 -88.91)" style="fill:#fff"/><path d="M699.28,517a.89.89,0,1,0,.89-.89A.88.88,0,0,0,699.28,517Z" transform="translate(-63.83 -88.91)" style="fill:#fff"/><path d="M729.89,531.61a.89.89,0,1,0,.88-.89A.88.88,0,0,0,729.89,531.61Z" transform="translate(-63.83 -88.91)" style="fill:#fff"/></g><path d="M871.8,543.27l-.95.19c7.6,3.81,13.69,12.93,16.54,18.25l3.23.19S882.45,548.6,871.8,543.27Z" transform="translate(-63.83 -88.91)" style="fill:#8e573f"/><path d="M511.88,502.88c-35.7,62.68,1.74,97.94,33.52,111.44l5.66-13.5C482.28,576.44,511.88,502.88,511.88,502.88Z" transform="translate(-63.83 -88.91)" style="fill:#e27a34"/><path d="M541.48,532c6.92,16.56,27.86,3.05,24.81-11.31S536.26,428,545,404.06C545,404.06,495.55,422.24,541.48,532Z" transform="translate(-63.83 -88.91)" style="fill:#e27a34"/><path d="M545.74,526.46c4.74,12.56,17.87,1.88,15.64-9.06S536.85,435,542,416.48C542,416.48,514.26,443.13,545.74,526.46Z" transform="translate(-63.83 -88.91)" style="fill:#c6422c"/><path d="M587.62,386.65c10-2.61,28.73-1.3,44,36.13s44,121.45,8.7,118.84S587.62,386.65,587.62,386.65Z" transform="translate(-63.83 -88.91)" style="fill:#e27a34"/><path d="M596.48,402.47c8.07-2,23-.56,34.5,31.36s32.82,103.47,4.63,100.6S596.48,402.47,596.48,402.47Z" transform="translate(-63.83 -88.91)" style="fill:#c6422c"/><path d="M643.34,560.34s1.29-55-23.08-82.89-45.06-3.26-45.06-3.26S552.36,526,547.14,543.8s-12.63,67.47-10,80.53H658.58S669.46,593.42,643.34,560.34Z" transform="translate(-63.83 -88.91)" style="fill:#ffd16c"/><path d="M643.34,560.34s2.61-59.2-21.76-87.06-47.89-3.92-47.89-3.92S552.36,526,547.14,543.8s-12.63,67.47-10,80.53h43c-4.82-62.1,12.25-132.65,42.22-124.24,21.07,5.9,23.43,50,15.07,99.06a194.74,194.74,0,0,1-6,25.18h27.18S669.46,593.42,643.34,560.34Z" transform="translate(-63.83 -88.91)" style="fill:#ffb852"/><polygon points="519.55 535.42 534.89 535.42 532.37 414.66 505.6 434.9 519.55 535.42" style="fill:#ffb852"/><polygon points="564.91 535.42 573.74 535.42 574.06 449.26 551.36 430.58 564.91 535.42" style="fill:#ffb852"/><path d="M555.85,624.33H515.36s-11.86-7.48-5.77-16.62,34.69-4.91,39.82-.32C555.61,612.94,555.85,624.33,555.85,624.33Z" transform="translate(-63.83 -88.91)" style="fill:#ffd16c"/><path d="M546.27,538.57c-13.06,5.23-19.59,54.85-19.16,71.83l6.1,13.93h30.91S559.33,533.35,546.27,538.57Z" transform="translate(-63.83 -88.91)" style="fill:#ffd16c"/><path d="M558.82,601.42A125,125,0,0,1,560,624.33h5.75s-6.53-92.9-19.59-87.68c-4.34,1.74-7.84,10.34-10.73,19.08C544.7,554.66,555.16,575,558.82,601.42Z" transform="translate(-63.83 -88.91)" style="fill:#ffb852"/><path d="M685.55,602.74c-35.84-4.34-46.36,21.59-46.36,21.59h47.74S695.23,603.91,685.55,602.74Z" transform="translate(-63.83 -88.91)" style="fill:#ffd16c"/><path d="M684.93,612.52c-13.51.6-24.62-2.57-24.82-7.08,0,0,0-.06,0-.09a50.88,50.88,0,0,0-23.43,19h50.24a52.21,52.21,0,0,0,3.19-12.22C688.45,612.3,686.72,612.45,684.93,612.52Z" transform="translate(-63.83 -88.91)" style="fill:#ffb852"/><path d="M631.59,449.34c-7-37.88-21.77-71.4-63.12-60.95s-31.78,53.76-19.7,78.9c5.34,4,16,8.17,17.09,23.11l62.25-1.89C618.09,468.49,631.59,449.34,631.59,449.34Z" transform="translate(-63.83 -88.91)" style="fill:#ffd16c"/><path d="M631.59,449.34c-6.76.36-22.68-18.13-40.56-15.31C578.79,436,555,468.14,548.88,467.38c5.6,3.64,15.69,11.46,16.6,24l63.7-2.43C620.61,471.86,628.91,453.75,631.59,449.34Z" transform="translate(-63.83 -88.91)" style="fill:#ffb852"/><path d="M603,431.81s-3.71,8-11.72,10.72c-4,1.38-9.53.43-15.31-1.43,0,0,8.45,12.48,20.29,8.6S603,431.81,603,431.81Z" transform="translate(-63.83 -88.91)" style="fill:#e27a34"/><path d="M583.2,460.15c2.94,3.64,15,11.66,20.73,7.18s12.3-14.45,8-24.81-19.48,4.63-19.48,4.63Z" transform="translate(-63.83 -88.91)" style="fill:#513935"/><path d="M604.24,460.32c-4.49,2.67-12.33,1.65-18.73-.19l-.61.92c3,2.89,14.52,8.88,19.53,4.66a22,22,0,0,0,7.13-11.49A30,30,0,0,1,604.24,460.32Z" transform="translate(-63.83 -88.91)" style="fill:#fff2d2"/><path d="M577.83,431.38c-7.84,3.59-19,12.77-17.65,27.79,0,0,12.18,7.63,21,5.22,7.18-2,14.27-21.26,14.27-21.26Z" transform="translate(-63.83 -88.91)" style="fill:#ffe18d"/><path d="M590.76,440c-2.39,6.06-8.92,12.28-17.82,16.13a41.46,41.46,0,0,1-12.28,3.28c3.24,1.61,14.11,7.52,21.88,4.41s12.92-20.69,12.92-20.69Z" transform="translate(-63.83 -88.91)" style="fill:#ffcf7b"/><path d="M593.31,425.47c7.83-3.6,21.53-1.71,31.68,10,0,0,.64,20.79-8.46,19.86s-23.28-12.54-23.28-12.54Z" transform="translate(-63.83 -88.91)" style="fill:#ffe18d"/><path d="M607.52,442.72a46.41,46.41,0,0,1-14.26-4.41v4.51s14.18,11.6,23.28,12.54c5.65.58,7.54-7.21,8.17-13.2A44.4,44.4,0,0,1,607.52,442.72Z" transform="translate(-63.83 -88.91)" style="fill:#ffcf7b"/><path d="M602.41,409.33c-1.7-3.56-4.79-5.63-6.77-4.59s-2,4.46-.36,7.7,3.63,3.78,5.56,3.06S604.06,412.81,602.41,409.33Z" transform="translate(-63.83 -88.91)" style="fill:#513935"/><path d="M563.35,426.85c-1.88-3.94-5.15-6.2-7.3-5.06s-2.38,5.26-.51,9.2,4.24,4.52,6.39,3.39S565.22,430.79,563.35,426.85Z" transform="translate(-63.83 -88.91)" style="fill:#513935"/><path d="M595,442.8c-2.64,1.22-21.27-5.44-20.4-10.44s18.48-14.11,23.51-8.49C601.77,428,597.79,441.49,595,442.8Z" transform="translate(-63.83 -88.91)" style="fill:#6b4a43"/><polygon points="513.67 535.42 529.02 535.42 528.48 442.52 505.14 462 513.67 535.42" style="fill:#ffe18d"/><path d="M592.21,540.55l.15,0,.36-21.56c-5.48-12.9-27.23-3-24.87,31.07.69,9.79,5.66,39.93,5.66,39.93C575.69,561.92,583.83,540.06,592.21,540.55Z" transform="translate(-63.83 -88.91)" style="fill:#ffd16c"/><path d="M655.09,624.33h-17L614.71,517.28c10.14,3.55,17.23,6.58,26.89,10Z" transform="translate(-63.83 -88.91)" style="fill:#ffe18d"/><path d="M588,624.33h21.22s-3.92-11.1-16.09-11.45C585,612.65,588,624.33,588,624.33Z" transform="translate(-63.83 -88.91)" style="fill:#ffe18d"/><path d="M571.69,624.33h21.22s-2-9.2-14.12-9.49C570.75,614.65,571.69,624.33,571.69,624.33Z" transform="translate(-63.83 -88.91)" style="fill:#ffe18d"/><path d="M665.17,624.33H644.75s1.94-9.2,13.59-9.49C666.07,614.65,665.17,624.33,665.17,624.33Z" transform="translate(-63.83 -88.91)" style="fill:#ffe18d"/><path d="M630.37,624.33h21.22s-2-9.2-14.13-9.49C629.43,614.65,630.37,624.33,630.37,624.33Z" transform="translate(-63.83 -88.91)" style="fill:#ffe18d"/><path d="M646.51,562.59l-4.91-35.33c-6.87-33.27-30.6-28.7-26.89-10L618.58,535C626.55,534.12,637.44,545.24,646.51,562.59Z" transform="translate(-63.83 -88.91)" style="fill:#ffd16c"/><path d="M586.69,432a35.76,35.76,0,0,1-11.56,2.35c3.12,4.59,17.53,9.49,19.83,8.43,2.65-1.22,6.31-13.15,3.72-18.05A33.13,33.13,0,0,1,586.69,432Z" transform="translate(-63.83 -88.91)" style="fill:#4f322d"/><path d="M589.59,439.93c.87-.33-2.71-5.42-6.33-5.94s-4.14,1.28-2.83,2.45S588.56,440.32,589.59,439.93Z" transform="translate(-63.83 -88.91)" style="fill:#35201d"/><path d="M594.52,439.21c-.83.47-2.33-5.64-.32-8.83s3.75-2.45,3.77-.66S595.5,438.64,594.52,439.21Z" transform="translate(-63.83 -88.91)" style="fill:#35201d"/><path d="M549.81,425.89c.59,6.49-7,6.74-6.52-2.61S553.7,406,558.9,406.44s1.93,7-2.19,7.21S549,417.37,549.81,425.89Z" transform="translate(-63.83 -88.91)" style="fill:#ffb852"/><path d="M588.76,402.32c-5.07,3.65-9.28-4-1.27-7.89s19.8,2.52,22.2,8-4.77,5.26-7.13,1.15S595.42,397.52,588.76,402.32Z" transform="translate(-63.83 -88.91)" style="fill:#ffb852"/><path d="M590.32,461.29s3.87,15.92,9.8,14.89c7.43-1.3,8.37-20.72,8.37-20.72S597,454.51,590.32,461.29Z" transform="translate(-63.83 -88.91)" style="fill:#f45e4e"/><path d="M560.65,608.23c-4.09,10.72-23,16.2-42.82,12.25a63.31,63.31,0,0,1-8.46-2.29,24.14,24.14,0,0,0,7.52,6.14h50.8S567.41,614,560.65,608.23Z" transform="translate(-63.83 -88.91)" style="fill:#ffb852"/><path d="M577.49,624.33h5s-1.52-4.36-2.94-4.57S577.49,624.33,577.49,624.33Z" transform="translate(-63.83 -88.91)" style="fill:#bf6767"/><path d="M589.13,624.33h5s-1.53-4.36-2.94-4.57S589.13,624.33,589.13,624.33Z" transform="translate(-63.83 -88.91)" style="fill:#bf6767"/><path d="M600.12,624.33h5s-3.08-4-4.57-4.25S600.12,624.33,600.12,624.33Z" transform="translate(-63.83 -88.91)" style="fill:#bf6767"/><path d="M636,624.33h4.72s-1.43-4.36-2.77-4.57S636,624.33,636,624.33Z" transform="translate(-63.83 -88.91)" style="fill:#bf6767"/><path d="M647,624.33h4.73s-1.44-4.36-2.78-4.57S647,624.33,647,624.33Z" transform="translate(-63.83 -88.91)" style="fill:#bf6767"/><path d="M657.42,624.33h4.73s-2.9-4-4.31-4.25S657.42,624.33,657.42,624.33Z" transform="translate(-63.83 -88.91)" style="fill:#bf6767"/><path d="M596.11,424.43c-.34-.89-2.47-.92-4.74-.05s-3.84,2.3-3.5,3.2,2.46.92,4.74.05S596.45,425.33,596.11,424.43Z" transform="translate(-63.83 -88.91)" style="fill:#fffbf6;mix-blend-mode:overlay;opacity:0.7000000000000001"/><path d="M584.42,429.36c-.27-.37-1-.27-1.71.23s-1,1.21-.71,1.59,1,.27,1.72-.23S584.71,429.73,584.42,429.36Z" transform="translate(-63.83 -88.91)" style="fill:#fffbf6;mix-blend-mode:overlay;opacity:0.7000000000000001"/><path d="M340.37,504.44c11.4.6,20.49-1.1,17-10.93-5.05-14.4-18.53,6.2-18.53,6.2Z" transform="translate(-63.83 -88.91)" style="fill:#ff9f50"/><path d="M342.78,400.84c7.69,8.71-1.74,17.41-7.25,20.6l-13.2-12.91C323.2,407.08,335.09,392.14,342.78,400.84Z" transform="translate(-63.83 -88.91)" style="fill:#ffb95c"/><path d="M340.49,403.19c5.55,6.28-1.26,12.57-5.24,14.87-2.49-4.63-4.8-7.6-9.53-9.32C326.34,407.69,334.94,396.9,340.49,403.19Z" transform="translate(-63.83 -88.91)" style="fill:#ff8040"/><path d="M297.56,400.05c-8,7.15-.27,16.83,4.5,20.81l14.64-10C316,409.29,306,392.44,297.56,400.05Z" transform="translate(-63.83 -88.91)" style="fill:#ffb95c"/><path d="M298.6,403c-5.86,5.16-.23,12.21,3.25,15.09l10.5-7.26C311.86,409.65,304.72,397.56,298.6,403Z" transform="translate(-63.83 -88.91)" style="fill:#ff8040"/><path d="M291.22,502.49l3.06,2.37H279.6S276.09,500.17,291.22,502.49Z" transform="translate(-63.83 -88.91)" style="fill:#ff9f50"/><path d="M296.24,463.47c20.28,6.25,23.14,34.49,22.09,41.39H288.16C274,480.52,290,461.55,296.24,463.47Z" transform="translate(-63.83 -88.91)" style="fill:#ffb95c"/><path d="M289.06,484.4c0-6.26-1-11.67-2.37-14.3,3.06-4.86,7.08-7.39,9.55-6.63,20.28,6.25,23.14,34.49,22.09,41.39H288.16A45.08,45.08,0,0,1,285.7,500C287.62,498.43,289.06,492,289.06,484.4Z" transform="translate(-63.83 -88.91)" style="fill:#ff9f50"/><path d="M338.29,504.86c4.93-9,19.14-44.1-2.9-72.54S289,454.66,289,470.33s6.38,34.53,20.31,34.53Z" transform="translate(-63.83 -88.91)" style="fill:#ff9f50"/><path d="M293.75,457.9c5.08-19.58,28.43-17.69,32.79-13.49,15.14,14.64,2.75,47.29-1,60.45H309C293.18,498.14,288.68,477.49,293.75,457.9Z" transform="translate(-63.83 -88.91)" style="fill:#ffeac5"/><path d="M326,481.43c-5.59-14.33-17.2-23.19-25.93-19.79-4.42,1.73-7.26,6.26-8.25,12.18a60.22,60.22,0,0,1,2-15.92c5.08-19.58,28.43-17.69,32.79-13.49,11.84,11.46,6.84,33.94,2.28,49.48A42.67,42.67,0,0,0,326,481.43Z" transform="translate(-63.83 -88.91)" style="fill:#ffd58a"/><path d="M294.73,450.51l4.32,21.58-1.18,0s-6.46-5.38-8.28-7.36S286.67,451.67,294.73,450.51Z" transform="translate(-63.83 -88.91)" style="fill:#ffb95c"/><path d="M291.36,482c5.05-9.39,12.5-13.75,18.19-11.29s6.21,12.07,1.15,21.46-13.11,13.33-19.47,12.55C287.43,500.58,286.3,491.4,291.36,482Z" transform="translate(-63.83 -88.91)" style="fill:#b24a3f"/><path d="M291.67,482.77c2-3.51,3.42-6.29,5.91-8.6,2.15-2.59,8.24-2.23,9.85-1.13,8.4,5.72-8.63,26.69-16.34,31.57C287.41,500.88,286.28,492.35,291.67,482.77Z" transform="translate(-63.83 -88.91)" style="fill:#993730"/><path d="M291.36,482a30.08,30.08,0,0,1,5.82-7.77,6.88,6.88,0,0,1,5.15.71c7.74,5.25-3.72,24.25-11.2,29.66C287.41,500.41,286.34,491.32,291.36,482Z" transform="translate(-63.83 -88.91)" style="fill:#bf5b4b"/><path d="M314.13,484.38c1.85.22,5.52-9-2.51-14.22s-15.48.39-13.15,2.23c1.2.95,4.57-.87,10.25,3.58S313,484.24,314.13,484.38Z" transform="translate(-63.83 -88.91)" style="fill:#542f29"/><path d="M304.24,472c5.07.53,9.24,1.61,9.57,0,5.06,5.29,2,12.62.32,12.42-1.16-.14.39-3.87-5.41-8.41s-9.05-2.63-10.25-3.58a1.08,1.08,0,0,1-.43-.94C299.67,471.64,301.84,471.73,304.24,472Z" transform="translate(-63.83 -88.91)" style="fill:#472622"/><path d="M310.35,465.8l1.56-1.63c2,1.44,2.64,4.12-.39,7.38l-.49-.27S313.72,467.37,310.35,465.8Z" transform="translate(-63.83 -88.91)" style="fill:#542f29"/><path d="M334.43,448.3l-22.38,22.05,1.15.85s14-3.3,22.92-1.64l6.68-9.47S339.83,445.57,334.43,448.3Z" transform="translate(-63.83 -88.91)" style="fill:#ffb95c"/><path d="M339.3,460.44c-1.48-3.9-7.88-4.69-15.08-2.08l10.21-10.06c6.48-5.54,9.85,11.19,9.85,11.19l-8.16,10.07H336C338.93,466.37,340.28,463,339.3,460.44Z" transform="translate(-63.83 -88.91)" style="fill:#ff9f50"/><path d="M344,463.08c17,6.31,5.42,34.81.78,41.78H314.4C312.85,480.29,338.77,461.14,344,463.08Z" transform="translate(-63.83 -88.91)" style="fill:#ffd685"/><path d="M338.2,496.16c7.37-12.45,9.1-25.06,3.87-28.17s-15.47,4.48-22.84,16.94c-.65,1.08-1.25,2.17-1.8,3.25,6.77-15.93,22.6-26.57,26.56-25.1,17,6.31,5.42,34.81.78,41.78H331.94A58.73,58.73,0,0,0,338.2,496.16Z" transform="translate(-63.83 -88.91)" style="fill:#ffb95c"/><path d="M305.79,448.43s-10.5,7.36-14.78,3.78a7.16,7.16,0,0,1,3.48-1.64c8.45-18.73,25.26-38.41,40.9-18.25a56.44,56.44,0,0,1,7.73,13.41C336.16,462.21,309.09,458.19,305.79,448.43Z" transform="translate(-63.83 -88.91)" style="fill:#b23841;mix-blend-mode:multiply;opacity:0.5"/><path d="M306.08,446.35c4.06,3.09,16.64,17,29.79,1.16s-7.35-40.43-14.89-39.27a38,38,0,0,0-29.21,25.53c-2,5.89-2.2,14.22,0,16.06C296,453.41,306.08,446.35,306.08,446.35Z" transform="translate(-63.83 -88.91)" style="fill:#ffd685"/><path d="M303.47,446.35c.33.25.71.57,1.15.94-2.44,1.48-7.4,4.13-10.9,3.44C298.24,450,303.47,446.35,303.47,446.35Z" transform="translate(-63.83 -88.91)" style="fill:#ffb95c"/><path d="M333.26,447.51c12.21-14.72-4.58-36.94-13.09-39.13l.81-.14c7.54-1.16,28,23.41,14.89,39.27-5.09,6.14-10.09,7.81-14.55,7.38C325.08,454.52,329.14,452.47,333.26,447.51Z" transform="translate(-63.83 -88.91)" style="fill:#ffb95c"/><path d="M304.34,440.06c3.15,2.06,10.32,3.68,14.22,3.68,11.59,0,17.83-8.35,18.12-21.32,4.05,7.82,5.51,17.46-.81,25.09-13.15,15.86-25.73,1.93-29.79-1.16,0,0-10,7.06-14.31,3.48-.91-.76-3.19-5.8-1.17-11.12C294.54,442.47,296.89,441.51,304.34,440.06Z" transform="translate(-63.83 -88.91)" style="fill:#ffb95c"/><path d="M326.73,504.86H307.64C304.31,499.9,318.61,497.88,326.73,504.86Z" transform="translate(-63.83 -88.91)" style="fill:#ffb95c"/><path d="M322,504.86H307.63C305.12,501.13,315.87,499.61,322,504.86Z" transform="translate(-63.83 -88.91)" style="fill:#ffd685"/><path d="M300.41,441.77c-4.75,1.86-8.9.58-8.62-3.2s5.11-11.14,10-12.2c4.25-.93,6.89,4.05,6.52,7.12S304.59,440.12,300.41,441.77Z" transform="translate(-63.83 -88.91)" style="fill:#ffeac5"/><path d="M298.25,436.82c4-2.94,6.26-6.94,4.49-9.35a3.46,3.46,0,0,0-1.23-1l.24-.06c4.25-.93,6.89,4.05,6.52,7.12s-3.68,6.63-7.86,8.28-8,.81-8.55-2.09C293.9,439.68,296,438.48,298.25,436.82Z" transform="translate(-63.83 -88.91)" style="fill:#ffdfab"/><path d="M308.82,442.41c-3.12-1.55-6-2.74-7.09-4.86-1.18-2.4-.17-5.74,2.12-7.53,4.42-3.47,13.5-2.48,19.37,1.71,5.14,3.66,5.84,8.46,2.17,11.07S314.67,445.31,308.82,442.41Z" transform="translate(-63.83 -88.91)" style="fill:#ffeac5"/><path d="M303.85,430c12.19-9.55,4.48.93,4.55,3.68.13,4.81,5.31,10.33,12.09,10.33a17.32,17.32,0,0,0,3.18-.31c-3.87,1.57-9.83,1.18-14.85-1.31-3.12-1.55-6-2.74-7.09-4.86C300.55,435.15,301.56,431.81,303.85,430Z" transform="translate(-63.83 -88.91)" style="fill:#ffdfab"/><path d="M303.36,433.54l.27.27a21,21,0,0,0,1.49,6.77l-1.15-.23S302.94,435.62,303.36,433.54Z" transform="translate(-63.83 -88.91)" style="fill:#513229"/><path d="M309.37,442.67s-6.49-3.18-8.43-.86a2.78,2.78,0,0,1,2.74-2.19C306,439.52,309.37,442.67,309.37,442.67Z" transform="translate(-63.83 -88.91)" style="fill:#513229"/><path d="M302.41,418.11c3.8-3.2,13.77-7.59,15.81-6s-6.37,10.32-10.46,13.54-8.41,4.14-10.07,2.44S298.74,421.19,302.41,418.11Z" transform="translate(-63.83 -88.91)" style="fill:#ffeac5"/><path d="M310,425.8c-1.17-5.19,3.48-13.39,7.82-13.87s8.8,3.34,10,8.53-1.41,9.79-5.75,10.27S311.16,431,310,425.8Z" transform="translate(-63.83 -88.91)" style="fill:#ffeac5"/><path d="M318.57,424.64a1.08,1.08,0,0,1,1.08-1,1,1,0,0,1,.69,1.19,1.08,1.08,0,0,1-1.08,1A1,1,0,0,1,318.57,424.64Z" transform="translate(-63.83 -88.91)" style="fill:#513830"/><path d="M316.4,415.55c-1.86,11.8-4.93,13.3-6.84,14.79l-10-1.06S318.27,403.75,316.4,415.55Z" transform="translate(-63.83 -88.91)" style="fill:#ffeac5"/><path d="M314.2,422.36c.85.87-3.74,6.83-4.44,7.93l-4.8-1.57C309.81,427.94,314.2,422.36,314.2,422.36Z" transform="translate(-63.83 -88.91)" style="fill:#ffdfab"/><path d="M310,429.2c.7,1.54-3.95,5.69-6.38,5.69-1,0-5.19-4.53-4.75-5.69S309.29,427.6,310,429.2Z" transform="translate(-63.83 -88.91)" style="fill:#513229"/><path d="M298.2,472.34a1.54,1.54,0,0,1-.79-1.84,5.23,5.23,0,0,1,1.67-2.09,1.15,1.15,0,0,1,1,.2Z" transform="translate(-63.83 -88.91)" style="fill:#ffb95c"/><path d="M309.54,468.9a1.54,1.54,0,0,1,1.94-.64c.41.16,1.9,1.49,1.94,1.94a1.13,1.13,0,0,1-.28,1Z" transform="translate(-63.83 -88.91)" style="fill:#ffb95c"/><path d="M310.87,469.23c-.71.28-2.53,1.42-2.89,1.09-.73-.64,1.41-1.77,2.13-1.9S310.87,469.23,310.87,469.23Z" transform="translate(-63.83 -88.91)" style="fill:#ffb95c"/><path d="M299.08,468.42c.73-.11,2.66-.78,3-.38.6.78-1.65,1.37-2.37,1.33S299.08,468.42,299.08,468.42Z" transform="translate(-63.83 -88.91)" style="fill:#ffb95c"/><path d="M298.87,469.78c.7.26,2.75.63,2.83,1.11.15,1-2.13.38-2.75,0S298.87,469.78,298.87,469.78Z" transform="translate(-63.83 -88.91)" style="fill:#ffb95c"/><path d="M312,469.79c-.61.47-2,2.08-2.48,1.87-.88-.4.86-2.09,1.52-2.42S312,469.79,312,469.79Z" transform="translate(-63.83 -88.91)" style="fill:#ffb95c"/><path d="M298.14,471.06c.6.46,2.47,1.42,2.4,1.89-.14.95-2.16-.28-2.65-.83S298.14,471.06,298.14,471.06Z" transform="translate(-63.83 -88.91)" style="fill:#ffb95c"/><path d="M313.6,470.84c-.61.48-2,2.07-2.46,1.87-.88-.4.85-2.08,1.5-2.42S313.6,470.84,313.6,470.84Z" transform="translate(-63.83 -88.91)" style="fill:#ffb95c"/><path d="M291.86,482.7c.31-.58.64-1.13,1-1.67a18.83,18.83,0,0,1,2.48,12.3,19.6,19.6,0,0,1-3.86,10C288.18,499.33,287.33,491.11,291.86,482.7Z" transform="translate(-63.83 -88.91)" style="fill:#d1756b"/><path d="M300.79,442.2c-.18-1.1,2.14-1.6,4.8-1.13,2.32.42,4,1.42,3.91,2.26s-1.62,1.29-3.76,1.12C303.32,444.25,301,443.25,300.79,442.2Z" transform="translate(-63.83 -88.91)" style="fill:#ffdfab"/><path d="M309,442.79c0-.29.17-.53.38-.53s.38.24.38.53-.17.52-.38.52S309,443.08,309,442.79Z" transform="translate(-63.83 -88.91)" style="fill:#513229"/><path d="M300.61,441.65c0-.3.17-.53.38-.53s.38.23.38.53-.17.52-.38.52S300.61,441.94,300.61,441.65Z" transform="translate(-63.83 -88.91)" style="fill:#513229"/><path d="M309.78,428.93a17.78,17.78,0,0,1-7.94,1.51c-.94,0-1.84-.05-2.69-.13a1.62,1.62,0,0,1-.27-1.11C299.29,428.11,308.11,427.66,309.78,428.93Z" transform="translate(-63.83 -88.91)" style="fill:#684436"/><path d="M304.56,433.7c1.3-.22,5.21-3.54,3-3.32C303.1,430.82,304.56,433.7,304.56,433.7Z" transform="translate(-63.83 -88.91)" style="fill:#351e19"/><path d="M302.55,433.5c-.84-.23-3.4-3.11-2.1-2.75A2.86,2.86,0,0,1,302.55,433.5Z" transform="translate(-63.83 -88.91)" style="fill:#351e19"/><path d="M294,480.74a3.33,3.33,0,0,1,1.14-2.6c1-.69,1.91.22,1.64,2-.22,1.46-1.12,2.35-1.84,2.24C294.37,482.27,294,481.59,294,480.74Z" transform="translate(-63.83 -88.91)" style="fill:#d1756b"/><path d="M303.86,424.26a1.08,1.08,0,0,1,1.13-.88.65.65,0,0,1,.44,1,1.13,1.13,0,0,1-1,.68A.62.62,0,0,1,303.86,424.26Z" transform="translate(-63.83 -88.91)" style="fill:#513830"/><polygon points="415.4 364.69 409.88 368.47 417.48 368.85 415.4 364.69" style="fill:#d6ae85"/><polygon points="423.44 365.26 417.56 368.43 425.07 369.62 423.44 365.26" style="fill:#d6ae85"/><polygon points="401.99 363.88 400.42 368.39 407.87 368.2 401.99 363.88" style="fill:#d6ae85"/><path d="M425.33,518.07s11.84,1.48,20.19,10l-4-15.3Z" transform="translate(-63.83 -88.91)" style="fill:#a56b55"/><path d="M501.63,520.31S512.44,515.24,524,518L512.5,507.14Z" transform="translate(-63.83 -88.91)" style="fill:#a56b55"/><path d="M496.59,523.36a18.38,18.38,0,0,1,15.48,1.18L504.63,512Z" transform="translate(-63.83 -88.91)" style="fill:#a56b55"/><path d="M512.3,624.33H482.13s8.27-83.18,15.68-72C515.35,578.73,512.3,624.33,512.3,624.33Z" transform="translate(-63.83 -88.91)" style="fill:#a56b55"/><path d="M517.46,615.45c-4.32-1-7,2.5-8.06,5.52l1,3.36h8.26C521.85,621.48,521.78,616.4,517.46,615.45Z" transform="translate(-63.83 -88.91)" style="fill:#ba8867"/><path d="M425.38,613.06c-18.81,6.46-33.22-4.41-32.63-17.94s7.93-53.8-10.29-54.39-19.12,47.92-4.41,69.09,43.51,10.29,49.68,7.06Z" transform="translate(-63.83 -88.91)" style="fill:#ba8867"/><path d="M425.38,613.06c-18.81,6.46-33.22-4.41-32.63-17.94.35-8.16,3.16-26,1.33-39.1-.45,5.39-1.16,11.11-2.15,17-2.73,16.24-7,30.47-11.5,39.78,15.23,17,41.45,7.13,47.3,4.06Z" transform="translate(-63.83 -88.91)" style="fill:#a56b55"/><path d="M423.62,624.33h85.85s-23.13-86.25-6.67-109l-59.58-2.74S401.27,565.53,423.62,624.33Z" transform="translate(-63.83 -88.91)" style="fill:#ba8867"/><path d="M497.29,560.64c.55,21,5.68,63.69,5.68,63.69h-8.32s-15.72-43.51-11.67-63.2C484.39,554.3,496.78,541.13,497.29,560.64Z" transform="translate(-63.83 -88.91)" style="fill:#a56b55"/><path d="M496.9,544.79c-.1-12.49,1.45-23.29,5.9-29.45l-59.58-2.74s-42,52.93-19.6,111.73h32.12C417.9,507.48,489.07,520.48,496.9,544.79Z" transform="translate(-63.83 -88.91)" style="fill:#a56b55"/><path d="M525,436.94s1.28,18.55-5.57,35.21l-29.91-14.63S520.62,434.1,525,436.94Z" transform="translate(-63.83 -88.91)" style="fill:#d6ae85"/><path d="M522,441.44s.87,12.63-3.79,24l-20.36-10S519,439.5,522,441.44Z" transform="translate(-63.83 -88.91)" style="fill:#f7d5b7"/><path d="M423.42,438.12s1.38,20.38,11.18,35.67l28.81-16.27S427.34,434.59,423.42,438.12Z" transform="translate(-63.83 -88.91)" style="fill:#d6ae85"/><path d="M427.6,442.8s1.09,16.22,8.89,28.4l22.94-13S430.72,440,427.6,442.8Z" transform="translate(-63.83 -88.91)" style="fill:#f7d5b7"/><path d="M412.25,505.94s38.22,19.79,68.6,16.85,54.69-20,54.69-20l-4.7-4.9,8.43-1.76-3.92-3.93,6.86-1.17s-25.1-35.05-53.71-34.3c-7.45.2-25.09-1.18-28.23.39s-26.85,8.43-35.08,16.47l8,3.52s-15.48,2.75-20.19,4.51c0,0,9.61,5.1,16.67,7.25L413,497.51l6.47,3.92Z" transform="translate(-63.83 -88.91)" style="fill:#d6ae85"/><path d="M535.39,492.27c-13.13,9.11-32.76-5.3-53.62-5.3-22.37,0-41.5,13.56-54.69,3.27L413,497.51l6.47,3.92-7.25,4.51s38.22,19.79,68.6,16.85,54.69-20,54.69-20l-4.7-4.9,8.43-1.76Z" transform="translate(-63.83 -88.91)" style="fill:#c69a71"/><path d="M467.55,472.68c-.13-2.92-2-5.28-4.18-5.28s-3.86,2.36-3.74,5.28,2,5.27,4.19,5.27S467.68,475.59,467.55,472.68Z" transform="translate(-63.83 -88.91)" style="fill:#513935"/><path d="M498.56,471.31c-.84-3-3.3-5.38-5.5-5.38s-3.3,2.41-2.47,5.38,3.3,5.38,5.5,5.38S499.4,474.28,498.56,471.31Z" transform="translate(-63.83 -88.91)" style="fill:#513935"/><path d="M479.68,500.5l-1.76,2s5.68,7.06,13.13-2.94C491.05,499.52,483.8,504.81,479.68,500.5Z" transform="translate(-63.83 -88.91)" style="fill:#a56b55"/><path d="M455.77,494.37c3.71,4.62,14.46,9.56,21.56,3.14,8.23-7.45,4.31-13.53,4.31-13.53l-6.08-5.29S442.83,478.3,455.77,494.37Z" transform="translate(-63.83 -88.91)" style="fill:#f7d5b7"/><path d="M510.92,492.33c-2.28,4.14-12.06,8.29-21.54,2.15-10.25-6.65-8.22-11.64-8.22-11.64l4.27-4.28S518.71,478.22,510.92,492.33Z" transform="translate(-63.83 -88.91)" style="fill:#f7d5b7"/><path d="M482.7,486.05s-9.63-7-7.54-8.57,11.88-.21,12.41,1.31S482.7,486.05,482.7,486.05Z" transform="translate(-63.83 -88.91)" style="fill:#7f5752"/><path d="M452.36,554.25c4.48,23.11,9.12,70.08,9.12,70.08h9.33s7.05-47.88-2.29-69.54C465.28,547.28,448.18,532.78,452.36,554.25Z" transform="translate(-63.83 -88.91)" style="fill:#d6ae85"/><path d="M498,552.28c2.34,23.76,11.1,72.05,11.1,72.05h-8.32s-19.43-49.22-17.05-71.48C484.51,545.12,495.78,530.21,498,552.28Z" transform="translate(-63.83 -88.91)" style="fill:#d6ae85"/><path d="M417.44,624.33h41.45s-36.39-84.89-43.21-73.51C399.54,577.79,417.44,624.33,417.44,624.33Z" transform="translate(-63.83 -88.91)" style="fill:#ba8867"/><path d="M411.31,568.29c9.92-2.71,22.31,14.25,33.34,37.88a108.75,108.75,0,0,1,6.66,18.16h7.58s-33.8-90.27-43.21-73.51a50.78,50.78,0,0,0-5.7,18A7.32,7.32,0,0,1,411.31,568.29Z" transform="translate(-63.83 -88.91)" style="fill:#a56b55"/><path d="M417.12,623.42l.32.91h.18Z" transform="translate(-63.83 -88.91)" style="fill:#a56b55"/><path d="M513.08,613.72c-5.33-1.14-8.61,3-9.83,6.59l1.29,4h10.15C518.57,620.93,518.41,614.85,513.08,613.72Z" transform="translate(-63.83 -88.91)" style="fill:#d6ae85"/><path d="M477.75,614.19c-5.76-1.08-8.15,2.86-8.56,6.3l2.28,3.84h10.46C485.13,621.08,483.51,615.28,477.75,614.19Z" transform="translate(-63.83 -88.91)" style="fill:#d6ae85"/><path d="M461.05,613.24c4.68-.85,7.41,2.35,8.68,5.92l-1.41,5.17H456A7.49,7.49,0,0,1,461.05,613.24Z" transform="translate(-63.83 -88.91)" style="fill:#d6ae85"/><path d="M417,614.64c9.64-.75,21.86,9.69,21.86,9.69h-26.7C404,620.47,406.81,615.42,417,614.64Z" transform="translate(-63.83 -88.91)" style="fill:#d6ae85"/><path d="M471,613.46c-5.55-1-12.57,2.5-8.13,10.87h11.83C478.66,620.84,477.43,614.62,471,613.46Z" transform="translate(-63.83 -88.91)" style="fill:#d6ae85"/><path d="M473.8,620c-.17,1.68-2.39,3-5.1,3a5.82,5.82,0,0,1-4.64-1.86,4.36,4.36,0,0,0,.89,3.19h8C474.63,623.12,474.91,621.32,473.8,620Z" transform="translate(-63.83 -88.91)" style="fill:#c69a71"/><path d="M482.57,620c-.19,1.68-2.79,3-6,3-2.41,0-5.37.06-4.39,1.33h10C484.16,623.12,483.88,621.32,482.57,620Z" transform="translate(-63.83 -88.91)" style="fill:#c69a71"/><path d="M482.18,480a18.73,18.73,0,0,1-7.13-1.26c1.15,2.56,7.65,7.27,7.65,7.27s4.4-4.6,4.86-6.67A21,21,0,0,1,482.18,480Z" transform="translate(-63.83 -88.91)" style="fill:#513935"/><path d="M422.34,498.17l-.2-.34c.18-.11,18.9-10.85,39.39-10.73v1.18h-.46C441.05,488.28,422.52,498.06,422.34,498.17Z" transform="translate(-63.83 -88.91)" style="fill:#f7d5b7"/><path d="M435.78,508.23l-.41-.33c.5-.61,12.43-14.89,26-18.65l.31,1.14C448.47,494,435.91,508.09,435.78,508.23Z" transform="translate(-63.83 -88.91)" style="fill:#f7d5b7"/><path d="M445.16,512.12l-.48-.16c0-.11,3.88-11,17.37-18.08l.55,1C449.52,501.79,445.19,512,445.16,512.12Z" transform="translate(-63.83 -88.91)" style="fill:#f7d5b7"/><path d="M469.48,485.92c0-.54-.28-1-.63-1s-.62.44-.62,1,.28,1,.62,1S469.48,486.46,469.48,485.92Z" transform="translate(-63.83 -88.91)" style="fill:#c69a71"/><path d="M461.93,489.25c0-.54-.28-1-.62-1s-.63.43-.63,1,.28,1,.63,1S461.93,489.8,461.93,489.25Z" transform="translate(-63.83 -88.91)" style="fill:#c69a71"/><path d="M469.58,493.57c0-.54-.28-1-.63-1s-.62.44-.62,1,.28,1,.62,1S469.58,494.11,469.58,493.57Z" transform="translate(-63.83 -88.91)" style="fill:#c69a71"/><path d="M477.61,489.25c0-.54-.28-1-.62-1s-.63.43-.63,1,.28,1,.63,1S477.61,489.8,477.61,489.25Z" transform="translate(-63.83 -88.91)" style="fill:#c69a71"/><path d="M494.47,484.94c0-.54-.28-1-.62-1s-.63.44-.63,1,.28,1,.63,1S494.47,485.49,494.47,484.94Z" transform="translate(-63.83 -88.91)" style="fill:#c69a71"/><path d="M497.41,491.8c0-.54-.28-1-.63-1s-.62.44-.62,1,.28,1,.62,1S497.41,492.34,497.41,491.8Z" transform="translate(-63.83 -88.91)" style="fill:#c69a71"/><path d="M543.06,496.17l.2-.35c-.19-.11-18.9-10.85-39.39-10.73v1.18h.46C524.36,486.27,542.88,496.06,543.06,496.17Z" transform="translate(-63.83 -88.91)" style="fill:#f7d5b7"/><path d="M529.62,506.23l.41-.34c-.5-.61-12.43-14.89-26-18.64l-.31,1.13C516.93,492,529.5,506.08,529.62,506.23Z" transform="translate(-63.83 -88.91)" style="fill:#f7d5b7"/><path d="M520.24,510.11l.48-.16c0-.11-3.88-11-17.37-18.08l-.55,1C515.88,499.78,520.21,510,520.24,510.11Z" transform="translate(-63.83 -88.91)" style="fill:#f7d5b7"/><path d="M504.76,492.2c0-.55-.28-1-.62-1s-.63.43-.63,1,.28,1,.63,1S504.76,492.74,504.76,492.2Z" transform="translate(-63.83 -88.91)" style="fill:#c69a71"/><path d="M504.86,484.94c0-.54-.28-1-.63-1s-.62.44-.62,1,.28,1,.62,1S504.86,485.49,504.86,484.94Z" transform="translate(-63.83 -88.91)" style="fill:#c69a71"/><path d="M462.34,462.94a15.19,15.19,0,0,0-10.09,7.25s-2.2-5.15,2.21-7.65A7.08,7.08,0,0,1,462.34,462.94Z" transform="translate(-63.83 -88.91)" style="fill:#ba8867"/><path d="M496,462a14.62,14.62,0,0,1,9.16,7.92s2.48-5-1.57-7.78A6.6,6.6,0,0,0,496,462Z" transform="translate(-63.83 -88.91)" style="fill:#ba8867"/><path d="M484.24,478c-1-.06-1.76.19-1.78.54s.74.69,1.7.74,1.76-.19,1.78-.54S485.2,478.05,484.24,478Z" transform="translate(-63.83 -88.91)" style="fill:#c69a71"/><path d="M480.78,482.5c-1.13-1.35-3.23-2.72-2.79-1.35a5.77,5.77,0,0,0,2.45,2.53c.47.24.81.26.91.11S481.31,483.13,480.78,482.5Z" transform="translate(-63.83 -88.91)" style="fill:#382927"/><path d="M484.47,483.23c1.35-1.14,2.71-3.24,1.35-2.79a5.66,5.66,0,0,0-2.53,2.45c-.24.47-.26.8-.11.9S483.84,483.75,484.47,483.23Z" transform="translate(-63.83 -88.91)" style="fill:#382927"/><path d="M458.22,624.3H462s-1.15-3.92-2.21-4.12S458.22,624.3,458.22,624.3Z" transform="translate(-63.83 -88.91)" style="fill:#644"/><path d="M467,624.3h3.77s-1.15-3.92-2.21-4.12S467,624.3,467,624.3Z" transform="translate(-63.83 -88.91)" style="fill:#644"/><path d="M475.26,624.3H479s-2.31-3.64-3.44-3.83S475.26,624.3,475.26,624.3Z" transform="translate(-63.83 -88.91)" style="fill:#644"/><path d="M518.56,624.3h-3s1.62-3.91,2.5-4.11S518.56,624.3,518.56,624.3Z" transform="translate(-63.83 -88.91)" style="fill:#644"/><path d="M511.74,624.3H508s2.29-3.64,3.4-3.83S511.74,624.3,511.74,624.3Z" transform="translate(-63.83 -88.91)" style="fill:#644"/><path d="M247.88,576.62,252,588.53c-29.23-18.09-63,4-64.55-20.58C192.92,566,247.88,576.62,247.88,576.62Z" transform="translate(-63.83 -88.91)" style="fill:#eddb58"/><path d="M431.5,595.71c-6.12,2-48.74-9.3-48.74-9.3l19.52-11a39,39,0,0,0,14,12.13C424.54,591.71,435.08,594.55,431.5,595.71Z" transform="translate(-63.83 -88.91)" style="fill:#9e9e2e"/><path d="M409.26,592.77a1.75,1.75,0,0,1-.43-1.09c0-1.65,2.88-3.13,7.42-4.14,8.31,4.17,18.82,7,15.25,8.17C428.83,596.56,419.24,594.91,409.26,592.77Z" transform="translate(-63.83 -88.91)" style="fill:#d8c93d"/><path d="M357,624.33H333.27s2.35-39.23,15.8-45.52,9.48,2.57,8.09,5.09C353.22,591.09,351.83,607,357,624.33Z" transform="translate(-63.83 -88.91)" style="fill:#8c802d"/><path d="M260.46,624.33H236.78s12-38.17,27-44.28,8.85,2.49,6.85,5C264.88,592,259.6,607.43,260.46,624.33Z" transform="translate(-63.83 -88.91)" style="fill:#8c802d"/><path d="M410.48,581.1c-16,6.21-76.58,20.5-82,22.57,0,0-46,5.56-79-16.53L238,564.71Z" transform="translate(-63.83 -88.91)" style="fill:#8c802d"/><path d="M244,565.28l8.4,17.56c30.87,22.06,74,20,80.29,19.58-2.1.57-3.57,1-4.23,1.25,0,0-44.81,8.42-82.55-18.23l-10.35-8Z" transform="translate(-63.83 -88.91)" style="fill:#dbc645"/><path d="M302,624.33H278.35S284.2,590.42,298.2,585s9.25,2.22,7.64,4.4C301.26,595.6,298.46,609.32,302,624.33Z" transform="translate(-63.83 -88.91)" style="fill:#9e9e2e"/><path d="M278.35,624.33s2.47-14.31,8-25.83a9.49,9.49,0,0,1,3.29-.61c4.35,0,8.26,3.1,10.94,8a57.91,57.91,0,0,0,1.4,18.44Z" transform="translate(-63.83 -88.91)" style="fill:#d8c93d"/><path d="M375.76,624.33h24.08s-5.95-33.91-20.2-39.35-9.41,2.22-7.77,4.4C376.53,595.6,379.38,609.32,375.76,624.33Z" transform="translate(-63.83 -88.91)" style="fill:#9e9e2e"/><path d="M388.12,595.48a6.7,6.7,0,0,1,2.13.35c6.66,11.84,9.59,28.5,9.59,28.5H375.76a57.34,57.34,0,0,0,1.5-17.25C379.66,600.07,383.63,595.48,388.12,595.48Z" transform="translate(-63.83 -88.91)" style="fill:#d8c93d"/><path d="M264.77,584.9l-6.45,1.8s-28.77-17.06-70.1-15.28a3.2,3.2,0,0,1-3.05-3.38c0-4.92-1.36-10.53,1.57-13.81,7.46-8.36,27.18-9.8,35.93-.74,2.86,3,3.12,4.19,8.32,6.39C251.42,552.85,264.77,584.9,264.77,584.9Z" transform="translate(-63.83 -88.91)" style="fill:#afac31"/><path d="M226.09,556.91a21,21,0,0,0,4.9,3c20.43-7,33.78,25,33.78,25l-6.45,1.8s-20.22-12-51.09-14.81C216.33,568.44,223.24,562.83,226.09,556.91Z" transform="translate(-63.83 -88.91)" style="fill:#9e9e2e"/><path d="M231.48,564.75a41.15,41.15,0,0,0-4.93-7.49,20.4,20.4,0,0,0,4.44,2.62c20.43-7,37,27.14,37,27.14s-8-.77-9.63-.32c0,0-8.45-5-22.76-9.3A40,40,0,0,0,231.48,564.75Z" transform="translate(-63.83 -88.91)" style="fill:#8c802d"/><path d="M418.11,581.75c-2,6.75-119.4,13.67-144.52,7.12-26.41-6.9-45.15-32.1-45.15-32.1s2-6.73,8.66-1.55c0,0,42.16-61.82,60.09-66.79,5.6-1.55,62.12,1.56,75.87,28s32.58,58.5,32.58,58.5S421.12,571.39,418.11,581.75Z" transform="translate(-63.83 -88.91)" style="fill:#c6c63e"/><path d="M231,553.61c5.38,6.43,21.78,24.13,43.25,29.73,24.09,6.29,133,.19,143.69-6.28a7.87,7.87,0,0,1,.72,5.47c-2,6.76-120.52,13.81-145.64,7.25-26.41-6.89-44.6-33-44.6-33A5.65,5.65,0,0,1,231,553.61Z" transform="translate(-63.83 -88.91)" style="fill:#b7b332"/><path d="M297.91,490.3c5.6-1.56,61.36-1,75.11,25.37,13.22,25.38,31.17,56.74,32.53,59.06-32.45,5-111.84,8.32-132,3.09C256.77,573.5,243.1,562,235.22,554a11.72,11.72,0,0,1,1.88,1.23S280,495.27,297.91,490.3Z" transform="translate(-63.83 -88.91)" style="fill:#e5e14a"/><path d="M336.86,535.6c-28,0-52.47-9.2-65.76-22.91,10.06-11.12,20.15-20.55,26.81-22.39,5.6-1.56,61.36-1,75.11,25.37,2,3.91,4.19,8,6.38,12A113.22,113.22,0,0,1,336.86,535.6Z" transform="translate(-63.83 -88.91)" style="fill:#f4eb53"/><polygon points="270.83 451.79 293.49 466.8 292.98 492.17 291.71 492.17 291.71 467.06 271 453.24 249.19 464.21 254.54 492.17 253.52 492.68 247.92 463.43 270.83 451.79" style="fill:#c6c63e"/><polygon points="225.68 458.85 248.42 463.25 248.68 464.8 225.93 459.88 213.21 473.09 215.75 493.28 213.97 493.02 211.68 473.09 225.68 458.85" style="fill:#c6c63e"/><polygon points="235.52 425.29 261.15 425.98 271.51 452.38 269.98 453.07 260.81 427.36 235.86 426.15 222.28 441.16 226.53 459.63 225.34 459.63 221.27 441.33 235.52 425.29" style="fill:#c6c63e"/><polygon points="200.73 443.41 221.78 440.82 222.12 442.02 201.07 444.27 193.26 461.18 196.66 471.54 212.44 472.91 211.93 474.47 195.81 472.4 192.41 461.35 200.73 443.41" style="fill:#c6c63e"/><polygon points="190.76 481.13 196.15 472.18 195.64 470.76 190.16 480.85 190.76 481.13" style="fill:#c6c63e"/><polygon points="192.33 461.7 182.78 461.7 173.36 467 173.27 466.31 182.53 460.92 192.84 461.05 192.33 461.7" style="fill:#c6c63e"/><polygon points="182.27 453.8 182.78 461.7 182.14 461.7 181.51 454.58 182.27 453.8" style="fill:#c6c63e"/><polygon points="200.73 443.83 190.55 443.06 191.05 442.48 201.11 443.45 200.73 443.83" style="fill:#c6c63e"/><polygon points="200.73 443.83 202.38 428.69 201.62 429.6 200.09 443.83 200.73 443.83" style="fill:#c6c63e"/><polygon points="212.44 417.05 227.33 413.94 235.52 425.29 235.1 426.11 226.95 414.71 211.81 417.69 212.44 417.05" style="fill:#c6c63e"/><polygon points="293.06 467.56 308 459.97 322.26 469.98 326.84 488.1 328.37 487.93 323.27 470.33 330.24 465.67 329.56 464.46 323.11 469.12 308.51 458.59 292.21 467.05 293.06 467.56" style="fill:#c6c63e"/><polygon points="260.81 427.36 269.13 414.24 263.53 402.34 262.34 401.82 268.11 414.24 259.8 426.84 260.81 427.36" style="fill:#c6c63e"/><polygon points="227.72 414.59 238.75 399.58 237.56 399.58 226.87 414.24 227.72 414.59" style="fill:#c6c63e"/><polygon points="309.02 459.28 307.15 440.82 314.05 436.14 313.77 435.68 306.37 440.67 307.96 459.44 309.02 459.28" style="fill:#c6c63e"/><polygon points="270.83 452.29 290.31 434.17 306.81 441.33 307.15 440.47 289.97 432.96 270.32 451.34 270.83 452.29" style="fill:#c6c63e"/><polygon points="290.35 433.61 287.8 417.31 293.15 411.74 292.26 411.09 287.04 416.79 289.46 434.26 290.35 433.61" style="fill:#c6c63e"/><polygon points="268.37 414.34 287.29 417.82 287.42 416.66 268.45 413.68 268.37 414.34" style="fill:#c6c63e"/><path d="M210.77,557.82l-8.69-.49s.44,5.26,4.94,5.19C208.71,562.49,210.77,557.82,210.77,557.82Z" transform="translate(-63.83 -88.91)" style="fill:#666426"/><path d="M204.39,568c-.43-1.41-2.46,4.56-16.29,3.06l-.52.4S206.17,573.88,204.39,568Z" transform="translate(-63.83 -88.91)" style="fill:#666426"/><path d="M200,557.25c1.56,1.35,10.35,1.9,12.47,1.82s-.34-6.48-5.35-6.65S198.36,555.87,200,557.25Z" transform="translate(-63.83 -88.91)" style="fill:#c6c63e"/><polygon points="269.98 452.38 248.42 463.25 225.68 458.85 248.25 460.66 269.98 452.38" style="fill:#f4eb53"/><polygon points="211.93 472.74 196.66 471.54 193.26 461.18 201.07 444.27 194.96 460.49 197.46 469.48 211.93 472.74" style="fill:#f4eb53"/><polygon points="221.44 440.82 200.78 443.41 202.43 429.08 201.91 442.02 221.44 440.82" style="fill:#f4eb53"/><polygon points="291.71 467.06 291.75 490.17 254.83 491.59 252.29 480.72 255.85 490.3 290.22 488.75 291.71 467.06" style="fill:#f4eb53"/><polygon points="322.26 469.98 326.88 487.71 293.02 490.17 293.4 475.42 294.68 488.88 324.85 486.29 322.26 469.98" style="fill:#f4eb53"/><path d="M314.09,564.58l3,15.93s-33.09.64-37.93-1.82L277,562l3.06,15.53,35.9,1.81Z" transform="translate(-63.83 -88.91)" style="fill:#f4eb53"/><path d="M63.83,624H936.17s-192.53,15.55-451.62,15.55S63.83,624,63.83,624Z" transform="translate(-63.83 -88.91)" style="fill:#ff508a"/></g></g></svg>